<svg xmlns="http://www.w3.org/2000/svg" width="882.000000pt" height="426.000000pt" viewBox="0 0 882.000000 426.000000" preserveAspectRatio="xMidYMid meet"><g transform="translate(0.000000,426.000000) scale(0.100000,-0.100000)" fill="#000000" stroke="none"><path d="M4627 4206 c-43 -19 -106 -51 -139 -70 l-60 -36 -74 15 c-195 40 -364 -1 -540 -132 -154 -115 -259 -268 -305 -443 -42 -163 -34 -467 16 -613 85 -248 305 -436 575 -491 115 -23 245 -30 330 -16 41 6 89 14 107 17 18 3 54 -3 85 -13 41 -15 80 -19 168 -18 128 1 228 19 333 61 67 26 71 27 81 9 6 -10 19 -29 29 -42 l19 -24 291 2 c263 3 292 5 295 20 2 9 -12 31 -30 50 -19 18 -52 58 -75 88 -22 30 -73 96 -112 145 -39 50 -71 98 -71 108 0 10 9 43 19 75 47 137 67 454 32 495 -12 15 -41 17 -225 17 -230 0 -275 6 -313 42 -14 12 -83 100 -153 193 -69 94 -149 197 -177 229 -59 68 -59 70 -16 245 21 86 23 105 12 112 -19 12 -14 13 -102 -25z m12 -116 c-11 -70 -18 -90 -33 -90 -15 0 -101 54 -111 69 -6 11 133 83 146 75 3 -2 2 -26 -2 -54z m-274 -45 c89 -24 173 -73 246 -145 68 -68 288 -340 374 -463 l50 -72 0 -170 c0 -150 -2 -175 -20 -210 -11 -22 -28 -41 -37 -43 -26 -5 -123 114 -465 569 -85 114 -125 150 -233 211 -107 60 -178 75 -285 60 -44 -7 -93 -12 -108 -12 -15 0 -27 -4 -27 -10 0 -11 -164 -120 -181 -120 -15 0 -2 36 34 99 44 74 190 220 257 255 115 62 274 82 395 51z m-215 -358 c19 -7 36 -20 38 -30 3 -17 -93 -147 -110 -147 -4 0 -10 12 -13 28 -3 15 -15 50 -26 77 -37 89 -38 85 22 84 30 0 70 -5 89 -12z m-200 -22 c45 -23 65 -101 63 -245 -1 -63 -8 -146 -15 -185 l-13 -70 -47 -3 c-58 -4 -60 5 -20 81 25 49 27 59 27 182 0 123 -2 133 -27 182 -16 29 -28 57 -28 63 0 14 26 12 60 -5z m-75 -80 c27 -54 30 -69 30 -155 0 -160 -57 -270 -141 -270 -19 0 -34 3 -34 6 0 4 14 22 31 42 85 96 105 239 49 348 l-30 59 22 18 c11 10 26 16 32 14 6 -1 25 -30 41 -62z m504 -21 c33 -30 102 -110 153 -177 276 -363 408 -544 408 -561 0 -25 -61 -106 -116 -155 -62 -54 -232 -141 -277 -141 -54 0 -192 87 -296 186 -94 89 -136 157 -167 273 -33 121 -8 344 52 462 41 82 126 166 171 168 6 1 39 -24 72 -55z m-610 -21 c75 -148 -14 -346 -166 -369 -43 -7 -43 -6 -43 24 0 27 4 32 34 37 83 16 142 110 125 199 -10 51 -11 130 -2 139 15 16 34 5 52 -30z m1752 -232 c35 -35 36 -47 7 -55 -34 -9 -416 -7 -422 2 -2 4 4 18 13 31 25 33 107 49 254 50 118 1 119 1 148 -28z m24 -146 l0 -30 -185 -5 -185 -5 -3 -222 c-1 -123 -6 -223 -10 -223 -5 0 -19 15 -32 33 -13 17 -42 51 -64 75 l-39 43 26 65 c26 62 57 207 57 264 0 15 3 30 7 34 4 3 102 5 217 4 l211 -3 0 -30z m-1647 -103 c24 -29 53 -52 73 -58 34 -10 35 -11 69 -94 56 -138 30 -135 -135 15 -145 131 -128 128 -225 38 -36 -33 -65 -52 -70 -47 -15 16 -50 127 -50 161 l0 33 148 0 149 0 41 -48z m1513 18 l129 0 0 -29 c0 -38 -11 -41 -133 -41 -56 0 -108 -4 -115 -8 -9 -6 -13 -57 -16 -186 -3 -163 -5 -179 -24 -198 -11 -11 -25 -17 -31 -14 -12 8 -16 441 -5 471 5 13 14 15 37 11 16 -3 87 -6 158 -6z m-1546 -181 c41 -39 75 -75 75 -80 0 -5 -17 -9 -39 -9 -27 0 -49 8 -76 30 -21 17 -44 30 -51 30 -8 0 -32 -17 -55 -37 -32 -29 -44 -35 -57 -26 -22 13 -27 50 -10 70 23 29 109 93 124 93 8 0 48 -32 89 -71z m1645 48 c0 -29 -31 -57 -64 -57 -45 0 -56 -16 -56 -79 0 -56 -27 -121 -50 -121 -6 0 -10 50 -10 135 l0 135 90 0 c66 0 90 -3 90 -13z m-1704 -159 c75 -57 143 -121 138 -129 -3 -5 -33 -9 -66 -9 -51 0 -67 4 -97 27 -40 31 -70 63 -71 77 0 14 41 56 55 56 7 0 25 -10 41 -22z m1232 -41 c21 -22 33 -89 19 -104 -4 -4 -29 14 -54 40 -46 45 -47 46 -28 67 23 26 37 25 63 -3z m-950 1 c7 -7 12 -31 12 -55 0 -43 0 -43 -35 -43 -29 0 -46 9 -85 46 -28 26 -50 51 -50 55 0 14 144 11 158 -3z m1464 -45 c41 -43 108 -145 108 -165 0 -8 -7 -24 -16 -36 -15 -21 -21 -22 -178 -22 -178 0 -194 5 -182 54 8 30 200 206 226 206 3 0 22 -17 42 -37z m-1340 -50 c46 -46 48 -49 48 -105 l0 -58 -44 0 c-66 0 -76 15 -76 114 0 76 4 96 19 96 3 0 27 -21 53 -47z m736 -21 c3 -46 -5 -51 -43 -26 -30 20 -31 28 -4 55 29 29 43 19 47 -29z m192 -28 c10 -30 10 -38 -1 -45 -29 -18 -39 -9 -39 34 0 69 20 74 40 11z m-114 -18 c21 -33 15 -71 -11 -71 -17 0 -20 8 -23 48 -3 52 9 61 34 23z m-933 7 c3 -5 2 -23 0 -42 -6 -33 -6 -33 -49 -27 -44 6 -137 47 -149 66 -4 6 28 10 94 10 55 0 102 -3 104 -7z m767 -13 c17 0 70 -52 70 -70 0 -24 -19 -30 -96 -30 -95 0 -129 25 -86 63 27 25 76 47 90 42 8 -3 17 -5 22 -5z m-495 -46 c15 -15 15 -18 -1 -35 -9 -11 -25 -19 -36 -19 -15 0 -18 8 -18 45 0 42 2 45 19 35 11 -5 27 -17 36 -26z"></path><path d="M4300 3935 c-19 -22 -4 -64 25 -71 49 -12 95 42 63 74 -17 17 -73 15 -88 -3z"></path><path d="M3728 2203 l-68 -69 0 -712 0 -712 70 0 70 0 0 215 c0 118 3 215 8 215 4 0 106 -99 227 -220 l220 -220 77 0 c43 0 78 3 78 6 0 4 -121 130 -270 281 -148 150 -270 277 -270 281 0 4 72 95 161 202 176 214 187 230 165 230 -12 0 -245 -261 -346 -387 -18 -24 -37 -43 -42 -43 -4 0 -9 225 -10 500 l-3 501 -67 -68z"></path><path d="M1187 2172 l-57 -58 0 -708 0 -708 60 4 c33 2 62 7 65 10 3 3 9 346 12 762 5 655 4 756 -8 756 -8 0 -40 -26 -72 -58z"></path><path d="M4835 1846 c-106 -42 -161 -69 -163 -80 -5 -23 14 -21 174 18 199 49 195 47 182 90 -6 20 -16 36 -22 35 -6 0 -83 -28 -171 -63z"></path><path d="M3000 1659 c-30 -5 -74 -19 -98 -30 -48 -24 -165 -130 -266 -244 l-68 -76 7 -294 7 -295 27 0 c14 0 43 3 64 6 l37 7 0 147 c0 81 3 243 7 361 l6 214 56 55 c31 31 73 64 94 73 82 39 199 31 264 -19 17 -13 44 -50 60 -81 l28 -58 5 -360 5 -360 44 -3 c25 -2 55 -1 68 3 l23 5 0 313 c0 171 -5 343 -10 380 -11 76 -44 149 -87 189 -61 58 -169 85 -273 67z"></path><path d="M410 1645 c-130 -29 -270 -118 -286 -180 -10 -39 19 -75 59 -75 41 0 77 35 107 103 28 63 73 113 113 126 63 19 118 23 168 11 90 -22 139 -94 139 -207 l0 -51 -102 -42 c-175 -72 -300 -135 -364 -183 -158 -117 -188 -268 -75 -378 55 -53 117 -75 187 -65 55 7 131 47 170 88 l28 29 -43 -16 c-59 -20 -104 -19 -150 5 -79 40 -130 137 -117 221 15 92 56 139 171 197 59 29 279 122 290 122 3 0 5 -146 5 -325 l0 -326 73 3 72 3 -1 360 c0 353 -1 361 -24 420 -13 33 -37 74 -54 91 -67 67 -235 99 -366 69z"></path><path d="M1873 1650 c-149 -27 -303 -128 -303 -199 0 -53 60 -79 108 -45 12 8 38 49 59 90 44 91 79 121 159 134 103 17 178 -6 226 -71 11 -14 24 -58 31 -98 13 -88 20 -81 -137 -147 -207 -86 -305 -142 -378 -214 -54 -54 -69 -76 -83 -122 -19 -68 -8 -127 35 -187 35 -48 118 -91 177 -91 56 0 132 29 182 71 50 42 52 53 6 33 -97 -40 -206 10 -253 119 -19 43 -15 132 7 176 21 40 74 92 119 115 47 24 312 136 322 136 6 0 10 -118 10 -325 l0 -325 71 0 70 0 -3 373 c-3 368 -3 373 -27 425 -29 65 -88 117 -156 138 -63 19 -175 26 -242 14z"></path><path d="M4883 1646 c-140 -32 -283 -129 -283 -193 0 -55 59 -81 108 -47 13 9 39 50 60 91 44 91 79 120 158 133 103 17 178 -6 226 -71 11 -14 24 -58 31 -98 13 -88 20 -81 -137 -147 -337 -141 -466 -249 -468 -393 0 -119 102 -221 221 -221 56 0 139 34 184 75 20 20 37 37 37 40 0 2 -17 -3 -37 -12 -79 -33 -174 0 -230 81 -38 53 -44 154 -15 213 22 42 74 93 120 117 47 24 312 136 322 136 6 0 10 -118 10 -325 l0 -325 71 0 70 0 -3 373 c-3 364 -3 373 -26 423 -13 28 -38 65 -56 83 -67 65 -235 96 -363 67z"></path><path d="M5673 1588 l-73 -73 0 -408 0 -407 75 0 74 0 3 398 3 397 24 39 c30 48 75 76 124 76 33 0 47 -8 95 -54 72 -67 95 -80 122 -66 58 31 38 97 -43 138 -96 50 -234 24 -293 -54 l-29 -38 -5 63 -5 62 -72 -73z"></path><path d="M6593 1646 c-140 -32 -283 -129 -283 -193 0 -56 63 -83 109 -45 12 9 41 53 64 97 56 104 93 127 205 128 86 1 123 -13 165 -62 25 -30 47 -105 47 -161 0 -34 -4 -37 -167 -106 -248 -106 -373 -190 -421 -286 -25 -52 -29 -131 -8 -181 16 -39 66 -91 108 -113 79 -41 186 -24 272 43 55 42 59 58 11 37 -193 -80 -356 194 -207 349 14 15 45 38 67 51 45 27 319 146 335 146 6 0 10 -118 10 -325 l0 -325 71 0 70 0 -3 373 c-4 417 -6 432 -75 501 -71 70 -235 102 -370 72z"></path><path d="M7727 1650 c-94 -24 -141 -61 -264 -207 -146 -174 -133 -141 -133 -343 0 -96 3 -226 7 -287 l6 -113 64 0 63 0 0 358 c0 402 -4 378 82 462 57 56 110 80 180 80 93 0 148 -33 191 -115 25 -48 35 -209 36 -562 l1 -223 65 0 65 0 0 350 c0 399 -3 385 87 472 60 59 105 78 183 78 73 0 125 -23 168 -75 49 -60 62 -119 62 -279 0 -77 3 -232 7 -343 l6 -203 63 0 63 0 3 193 c5 295 -5 502 -27 570 -44 140 -182 217 -338 187 -86 -16 -154 -57 -218 -130 -30 -33 -56 -60 -60 -60 -3 0 -14 18 -24 39 -50 113 -208 183 -338 151z"></path><path d="M4626 448 c-3 -13 -8 -39 -11 -58 -4 -19 -14 -66 -22 -105 -27 -136 -28 -170 -3 -205 21 -29 27 -32 65 -27 121 13 239 184 177 255 -11 12 -26 22 -35 22 -24 0 -116 -51 -135 -75 -9 -11 -23 -25 -31 -29 -20 -13 -7 65 25 145 31 81 31 99 -1 99 -18 0 -26 -6 -29 -22z m182 -198 c7 -60 -99 -164 -161 -158 -28 3 -32 6 -30 30 4 58 113 162 163 156 18 -2 26 -10 28 -28z"></path><path d="M6410 438 c-6 -18 -18 -76 -25 -128 -8 -52 -21 -126 -28 -165 -27 -128 0 -126 100 8 50 66 80 97 94 97 22 0 22 1 39 -90 12 -65 32 -100 56 -100 24 0 26 20 5 54 -12 18 -21 46 -21 62 0 34 -22 100 -38 116 -23 23 -104 -40 -160 -125 -13 -20 -29 -37 -33 -37 -12 0 -14 -12 27 149 35 141 38 191 10 191 -8 0 -19 -15 -26 -32z"></path><path d="M3784 360 l-17 -60 -44 0 c-40 0 -44 -2 -41 -22 2 -18 11 -24 36 -26 29 -3 33 -6 28 -25 -3 -12 -11 -50 -18 -85 -11 -59 -10 -63 12 -87 37 -39 79 -32 143 24 46 42 29 58 -22 20 -17 -13 -39 -19 -57 -17 -29 3 -29 3 -28 69 1 39 9 79 18 97 16 31 19 32 81 32 51 0 65 3 65 15 0 12 -13 15 -58 15 -32 0 -61 2 -64 5 -3 3 1 24 8 46 15 43 12 59 -11 59 -9 0 -21 -24 -31 -60z"></path><path d="M5915 398 c-26 -100 -25 -98 -72 -98 -40 0 -44 -2 -41 -22 2 -18 11 -24 36 -26 29 -3 33 -6 28 -25 -3 -12 -11 -50 -18 -85 -11 -59 -10 -63 12 -87 37 -39 79 -32 143 24 46 42 29 58 -22 20 -17 -13 -39 -19 -57 -17 -29 3 -29 3 -28 69 1 39 9 79 18 97 16 31 19 32 81 32 51 0 65 3 65 15 0 12 -13 15 -58 15 -32 0 -61 2 -64 5 -3 3 1 24 8 46 8 22 12 45 9 50 -11 17 -34 9 -40 -13z"></path><path d="M4555 370 c-3 -5 1 -10 9 -10 9 0 16 5 16 10 0 6 -4 10 -9 10 -6 0 -13 -4 -16 -10z"></path><path d="M1020 309 c-41 -23 -103 -89 -125 -132 -20 -40 -19 -91 2 -112 24 -24 74 -13 133 29 53 38 54 38 64 -11 8 -37 29 -58 51 -49 19 7 19 30 0 46 -17 14 -20 101 -6 160 9 41 5 60 -15 60 -8 0 -17 7 -20 15 -8 20 -42 18 -84 -6z m76 -53 c7 -31 -31 -92 -84 -135 -103 -81 -123 14 -25 117 30 32 47 42 71 42 25 0 33 -5 38 -24z"></path><path d="M1896 312 c-68 -35 -116 -111 -116 -182 1 -60 37 -100 90 -100 56 0 179 85 156 108 -4 3 -10 1 -14 -5 -14 -22 -88 -53 -127 -53 -66 0 -90 44 -37 70 119 60 166 116 136 159 -17 24 -47 25 -88 3z m52 -39 c-2 -19 -17 -37 -51 -60 -55 -39 -74 -36 -51 9 36 70 109 106 102 51z"></path><path d="M2230 309 c-41 -23 -103 -89 -125 -132 -8 -16 -15 -47 -15 -68 0 -71 64 -77 150 -15 50 36 60 36 60 2 0 -28 27 -66 46 -66 23 0 28 29 9 50 -16 17 -17 32 -11 120 6 83 5 100 -7 100 -8 0 -20 7 -27 15 -16 20 -37 18 -80 -6z m75 -49 c9 -30 -33 -98 -84 -138 -78 -59 -117 -23 -67 62 49 84 135 127 151 76z"></path><path d="M2565 317 c-80 -47 -93 -58 -99 -83 -9 -34 11 -55 84 -92 30 -15 56 -32 58 -39 5 -19 -65 -43 -125 -43 -47 0 -54 -3 -51 -17 3 -15 14 -18 67 -16 73 2 127 24 143 59 15 31 0 47 -80 89 -31 17 -58 37 -60 46 -4 22 42 50 97 58 37 5 46 10 46 26 0 24 -48 31 -80 12z"></path><path d="M5018 310 c-59 -32 -118 -124 -118 -186 0 -42 49 -94 90 -94 38 0 100 27 133 58 41 39 34 59 -9 26 -44 -34 -132 -46 -153 -21 -21 26 -9 49 42 76 79 43 117 78 117 109 0 54 -38 66 -102 32z m58 -25 c4 -8 0 -23 -7 -32 -18 -21 -89 -73 -101 -73 -21 0 -5 43 30 80 40 42 69 51 78 25z"></path><path d="M5615 313 c-43 -22 -104 -82 -126 -125 -21 -42 -25 -108 -7 -126 26 -26 98 -6 150 43 32 30 38 31 38 8 0 -26 37 -83 54 -83 23 0 25 23 3 58 -18 31 -19 40 -8 102 14 90 14 110 -3 110 -7 0 -19 7 -26 15 -15 18 -36 18 -75 -2z m63 -50 c14 -28 -11 -75 -69 -127 -60 -54 -92 -58 -97 -13 -9 77 136 199 166 140z"></path><path d="M7798 310 c-60 -32 -118 -124 -118 -188 0 -43 48 -92 90 -92 38 0 100 27 133 58 41 39 34 59 -9 26 -44 -34 -132 -46 -153 -21 -21 26 -9 49 42 76 79 43 117 78 117 109 0 54 -38 66 -102 32z m58 -25 c4 -8 0 -23 -7 -32 -18 -21 -89 -73 -101 -73 -21 0 -5 43 30 80 40 42 69 51 78 25z"></path><path d="M1523 298 c-16 -21 -32 -196 -21 -235 12 -43 39 -41 49 4 10 49 47 114 92 161 41 42 73 52 95 30 8 -8 15 -9 22 -2 14 14 2 42 -21 49 -49 16 -95 -16 -177 -121 l-23 -29 5 45 c3 25 8 60 12 78 5 25 3 32 -9 32 -8 0 -19 -6 -24 -12z"></path><path d="M2826 303 c-47 -12 -126 -126 -126 -182 0 -32 65 -91 100 -91 17 0 30 5 30 10 0 6 9 10 20 10 12 0 43 22 70 50 48 47 50 52 50 104 0 48 -3 57 -31 80 -30 25 -65 31 -113 19z m96 -69 c16 -28 17 -35 4 -65 -24 -56 -59 -83 -113 -83 -42 -1 -48 2 -57 25 -13 39 1 78 44 121 50 50 94 51 122 2z"></path><path d="M3074 288 c-5 -13 -9 -43 -10 -68 0 -25 -4 -71 -9 -102 l-8 -58 27 0 c22 0 34 12 72 72 98 154 132 157 149 13 9 -70 23 -95 55 -95 25 0 50 16 50 31 0 4 -12 9 -27 11 -25 3 -29 8 -36 53 -16 101 -42 155 -75 155 -26 0 -69 -39 -103 -92 -19 -29 -39 -59 -46 -66 -16 -17 -17 -9 -3 73 5 33 7 68 4 77 -8 25 -31 22 -40 -4z"></path><path d="M4082 293 c-36 -18 -81 -77 -100 -135 -11 -31 -11 -42 2 -66 17 -33 56 -62 85 -62 10 0 43 12 71 27 66 34 102 87 103 151 0 39 -4 49 -32 74 -36 32 -78 36 -129 11z m111 -55 c26 -35 17 -71 -32 -120 -32 -32 -46 -38 -79 -38 -32 0 -44 5 -53 21 -18 34 -2 85 41 130 32 34 44 40 71 37 21 -2 39 -12 52 -30z"></path><path d="M6831 293 c-37 -18 -91 -86 -91 -114 0 -10 -4 -21 -10 -24 -21 -13 -9 -55 25 -90 43 -42 66 -44 133 -9 67 35 102 87 102 153 0 43 -4 53 -31 75 -36 30 -78 33 -128 9z m101 -40 c25 -29 28 -51 13 -85 -23 -55 -59 -82 -112 -82 -42 -1 -48 2 -57 25 -13 39 1 78 43 121 43 42 87 51 113 21z"></path><path d="M7085 206 c-9 -58 -15 -116 -11 -130 10 -41 40 -32 81 22 93 124 114 147 128 133 4 -4 10 -35 13 -67 6 -61 21 -104 36 -104 13 0 42 30 64 65 47 74 91 122 102 110 5 -5 15 -39 21 -74 12 -74 33 -111 62 -111 28 0 35 27 11 48 -14 11 -26 43 -37 97 -16 81 -28 105 -50 105 -15 0 -95 -72 -95 -86 0 -5 -14 -25 -30 -44 -25 -29 -31 -32 -40 -20 -5 8 -10 37 -10 63 0 50 -13 87 -31 87 -22 0 -71 -44 -111 -98 -40 -55 -59 -74 -65 -68 -2 2 1 35 7 74 10 74 6 102 -14 102 -8 0 -19 -38 -31 -104z"></path></g></svg>