<svg xmlns="http://www.w3.org/2000/svg" width="1068.000000pt" height="186.000000pt" viewBox="0 0 1068.000000 186.000000" preserveAspectRatio="xMidYMid meet"><g transform="translate(0.000000,186.000000) scale(0.100000,-0.100000)" fill="#000000" stroke="none"><path d="M1050 1821 c-47 -21 -105 -50 -129 -65 -42 -27 -45 -27 -90 -14 -60 17 -222 17 -286 -1 -111 -31 -205 -90 -310 -196 -115 -115 -153 -174 -192 -300 -26 -85 -28 -100 -27 -275 0 -214 10 -272 64 -385 117 -242 339 -380 645 -401 57 -4 117 -2 165 7 97 16 120 16 213 -6 71 -17 89 -18 190 -6 66 7 141 22 182 37 112 41 112 41 136 0 l21 -36 269 0 c235 0 270 2 276 16 3 10 -7 27 -29 47 -19 18 -46 50 -60 72 -14 22 -60 83 -102 135 -42 52 -76 103 -76 113 0 10 6 30 14 46 27 51 49 202 50 334 1 116 -1 130 -18 143 -16 11 -62 14 -215 14 -108 0 -212 5 -232 10 -39 11 -60 35 -216 245 -49 66 -110 143 -135 171 l-45 52 9 58 c4 33 18 92 30 132 18 63 19 75 7 83 -19 12 -13 13 -109 -30z m26 -98 c-10 -67 -16 -83 -30 -83 -17 0 -106 57 -106 69 0 9 106 59 129 60 10 1 12 -10 7 -46z m-241 -45 c69 -17 158 -74 226 -145 69 -72 267 -317 338 -419 l43 -62 0 -138 c0 -145 -12 -211 -42 -239 -16 -14 -21 -12 -64 33 -41 42 -182 224 -381 487 -84 111 -131 150 -251 210 -77 38 -135 46 -244 32 -52 -6 -98 -16 -102 -23 -11 -18 -157 -106 -168 -102 -38 12 162 259 254 313 115 67 257 87 391 53z m-202 -330 c15 -6 27 -18 27 -28 0 -18 -86 -130 -100 -130 -4 0 -13 21 -19 47 -7 25 -19 59 -27 75 -24 47 -13 60 43 53 27 -4 60 -11 76 -17z m-153 -64 c20 -40 25 -237 8 -334 -12 -66 -16 -75 -38 -80 -31 -8 -60 -1 -60 13 0 6 12 40 26 76 24 59 26 74 22 170 -3 86 -8 114 -27 149 -12 24 -20 51 -17 59 5 13 11 12 39 -4 17 -11 39 -32 47 -49z m-102 -34 c19 -47 22 -69 19 -155 -3 -85 -7 -108 -30 -152 -30 -57 -50 -73 -96 -73 -37 0 -38 4 -10 33 11 12 34 48 50 79 39 77 40 168 4 247 -30 64 -27 84 12 79 23 -2 32 -12 51 -58z m459 -12 c54 -51 108 -120 368 -462 171 -225 158 -202 132 -248 -37 -66 -126 -142 -225 -192 -54 -27 -105 -46 -125 -46 -52 0 -188 90 -287 190 -87 87 -106 121 -141 250 -35 131 15 374 97 473 32 40 93 87 111 87 8 0 39 -24 70 -52z m-551 -44 c22 -58 14 -148 -18 -206 -29 -53 -92 -98 -146 -105 -40 -5 -42 -4 -42 20 0 21 7 28 35 36 84 23 133 100 114 181 -20 82 -4 155 27 129 7 -6 21 -30 30 -55z m1558 -163 c16 -3 38 -19 50 -34 18 -24 19 -29 6 -37 -20 -13 -387 -13 -395 0 -3 5 6 21 20 34 20 19 42 26 93 31 37 3 74 8 82 9 25 6 113 4 144 -3z m68 -139 c9 -9 10 -17 2 -30 -10 -15 -34 -18 -180 -22 l-169 -5 2 -202 c1 -171 -1 -203 -13 -203 -8 0 -14 4 -14 8 0 4 -22 33 -50 64 -27 31 -50 63 -50 71 0 9 9 37 21 63 11 27 27 93 36 149 9 55 17 106 20 114 5 18 376 12 395 -7z m-1523 -111 c17 -21 49 -46 71 -55 29 -11 41 -23 46 -43 4 -16 15 -45 25 -65 51 -101 4 -89 -131 35 -62 56 -116 102 -121 102 -5 0 -39 -26 -75 -59 -75 -67 -78 -66 -106 21 -33 108 -39 103 121 103 l139 0 31 -39z m1518 3 c15 -38 -9 -49 -117 -52 -57 -1 -110 -8 -117 -14 -10 -8 -13 -51 -13 -174 0 -156 -1 -164 -22 -178 -12 -8 -25 -13 -30 -10 -9 6 -11 428 -1 437 3 4 71 7 150 7 124 0 144 -2 150 -16z m-1498 -198 l35 -36 -44 0 c-31 0 -53 7 -76 25 -42 32 -48 31 -94 -5 -44 -35 -56 -37 -70 -11 -14 27 -5 43 42 82 75 62 77 62 128 19 25 -21 61 -54 79 -74z m1461 80 c0 -30 -17 -44 -60 -48 l-35 -3 -5 -60 c-5 -58 -30 -115 -50 -115 -11 0 -14 233 -3 243 3 4 39 7 80 7 70 0 73 -1 73 -24z m-1487 -199 c31 -28 57 -54 57 -58 0 -13 -108 -11 -133 2 -31 16 -87 71 -87 85 0 7 12 22 27 33 25 20 27 20 52 4 14 -9 52 -39 84 -66z m1062 19 c21 -31 32 -96 16 -96 -15 0 -91 70 -91 84 0 39 52 47 75 12z m-877 2 c7 -7 12 -29 12 -50 0 -36 -2 -38 -32 -38 -33 0 -61 19 -108 73 l-23 27 69 0 c41 0 75 -5 82 -12z m1344 -35 c43 -47 98 -136 98 -160 0 -43 -33 -53 -176 -53 -73 0 -139 3 -148 6 -34 13 -18 58 42 115 81 79 131 119 145 119 8 0 25 -12 39 -27z m-1235 -45 c37 -38 42 -49 45 -98 l3 -55 -32 -3 c-64 -6 -73 8 -73 108 0 50 4 90 8 90 4 0 26 -19 49 -42z m683 -29 c0 -44 -1 -45 -35 -23 -29 19 -31 31 -9 55 24 27 44 13 44 -32z m172 -13 c12 -25 14 -36 5 -45 -24 -24 -37 -12 -37 34 0 54 10 57 32 11z m-95 -42 c15 -31 15 -36 3 -44 -25 -16 -35 -5 -38 38 -4 52 12 55 35 6z m-861 4 c-3 -13 -6 -29 -6 -35 0 -22 -52 -14 -117 17 -35 16 -63 32 -63 35 0 3 43 5 96 5 95 0 96 0 90 -22z m742 -22 c47 -44 37 -56 -50 -63 -104 -9 -137 23 -75 71 45 36 79 33 125 -8z m-510 -2 c28 -20 28 -42 0 -53 -31 -12 -38 -6 -38 35 0 38 6 41 38 18z"></path><path d="M765 1580 c-17 -18 -17 -21 -1 -45 26 -39 86 -26 86 18 0 47 -52 64 -85 27z"></path><path d="M6003 1678 l-63 -64 0 -667 0 -667 65 0 65 0 0 200 c0 110 3 200 8 200 4 0 99 -92 212 -205 l205 -205 66 0 c36 0 69 3 72 6 3 4 -106 121 -243 262 -138 140 -250 260 -250 266 0 6 63 88 141 181 176 212 185 225 165 225 -13 0 -150 -151 -305 -337 -28 -35 -56 -63 -61 -63 -6 0 -11 179 -12 465 l-3 466 -62 -63z"></path><path d="M3637 1652 l-57 -58 2 -659 3 -660 36 -3 c19 -2 46 1 60 6 l24 10 4 704 c2 437 0 708 -6 711 -5 3 -35 -20 -66 -51z"></path><path d="M7030 1341 c-137 -55 -164 -71 -141 -85 10 -7 299 60 321 74 18 11 3 70 -18 69 -9 0 -82 -27 -162 -58z"></path><path d="M5330 1168 c-96 -15 -136 -42 -272 -182 l-128 -130 0 -278 c0 -187 3 -279 11 -283 6 -4 35 -4 65 0 l54 6 0 322 c0 287 2 326 18 357 22 44 110 116 159 129 97 27 198 1 245 -62 51 -70 52 -72 58 -432 l5 -340 29 -3 c16 -2 45 -1 63 3 l35 6 -4 337 c-4 289 -7 344 -22 383 -47 126 -170 191 -316 167z"></path><path d="M2911 1155 c-89 -20 -188 -69 -233 -116 -50 -53 -51 -101 -1 -120 40 -15 79 13 114 84 51 101 84 129 172 141 137 20 227 -59 227 -200 0 -46 9 -40 -149 -106 -152 -64 -245 -114 -309 -167 -153 -128 -148 -301 13 -377 60 -29 99 -30 164 -5 42 16 136 79 128 87 -1 1 -25 -4 -54 -11 -70 -18 -116 -5 -169 49 -94 94 -80 226 32 311 32 25 317 155 339 155 3 0 5 -137 5 -305 l0 -305 39 0 c21 0 53 3 71 6 l32 7 -4 331 c-5 352 -9 387 -60 459 -26 36 -99 72 -173 86 -73 14 -104 13 -184 -4z"></path><path d="M4295 1164 c-96 -15 -229 -79 -276 -132 -39 -44 -38 -90 3 -110 40 -19 80 5 109 65 56 118 88 145 185 158 63 8 123 -7 163 -41 34 -28 61 -102 61 -165 l0 -37 -157 -67 c-238 -100 -359 -185 -399 -280 -45 -108 20 -239 135 -274 54 -16 83 -14 143 9 44 17 118 69 118 83 0 2 -22 -2 -50 -9 -152 -39 -283 134 -209 278 27 52 61 83 129 118 54 27 274 120 285 120 3 0 5 -137 5 -305 l0 -305 49 0 c88 0 81 -29 81 339 0 369 -5 403 -66 471 -22 25 -56 47 -90 60 -55 20 -164 32 -219 24z"></path><path d="M7083 1155 c-122 -27 -248 -109 -268 -172 -4 -17 1 -29 19 -48 14 -14 32 -25 40 -25 27 0 67 44 104 115 44 82 68 101 146 116 145 26 230 -37 237 -179 3 -63 6 -61 -151 -126 -168 -70 -246 -114 -312 -175 -74 -68 -102 -119 -101 -187 1 -97 80 -185 179 -200 62 -9 144 19 197 68 25 24 34 37 22 33 -85 -30 -132 -25 -191 20 -48 37 -74 93 -74 160 0 95 40 150 150 205 71 36 273 121 277 117 2 -2 6 -140 10 -306 l6 -301 41 0 c23 0 51 3 64 6 l23 7 -3 341 c-3 331 -4 342 -26 391 -13 28 -35 62 -49 77 -59 61 -219 91 -340 63z"></path><path d="M7817 1102 l-67 -68 2 -379 3 -380 68 -3 67 -3 0 362 c0 350 1 364 21 407 26 52 70 82 122 82 33 0 47 -8 95 -53 31 -30 65 -57 74 -60 21 -7 68 28 68 52 0 25 -43 69 -85 87 -86 36 -225 6 -262 -57 -10 -16 -21 -29 -25 -29 -4 0 -8 25 -10 55 l-3 56 -68 -69z"></path><path d="M8682 1155 c-158 -34 -286 -130 -268 -199 3 -13 17 -28 31 -34 42 -19 79 7 116 81 51 102 85 129 174 141 137 19 225 -59 225 -200 0 -46 9 -40 -149 -106 -239 -100 -349 -176 -396 -273 -52 -106 -15 -212 95 -268 84 -44 167 -30 257 42 18 14 33 29 33 33 0 3 -21 0 -47 -8 -58 -18 -109 -6 -159 38 -95 84 -97 209 -5 298 37 37 78 59 203 113 86 37 159 67 162 67 3 0 6 -137 6 -305 l0 -305 48 0 c26 0 58 3 71 7 l24 6 -6 331 c-6 349 -12 393 -57 456 -28 39 -99 75 -175 89 -73 14 -104 13 -183 -4z"></path><path d="M9737 1159 c-93 -22 -142 -62 -272 -219 l-95 -115 0 -278 0 -278 63 3 62 3 3 342 2 342 55 59 c70 76 104 92 194 92 68 0 73 -2 113 -37 81 -74 83 -83 86 -465 l4 -338 57 0 58 0 6 335 c5 267 9 340 21 363 8 16 40 52 71 80 62 57 92 67 185 60 71 -5 120 -39 160 -109 27 -47 26 -35 39 -676 l1 -53 59 0 59 0 4 192 c2 106 1 258 -3 338 -9 176 -29 239 -91 295 -58 53 -101 69 -188 69 -103 1 -186 -39 -263 -125 l-54 -61 -32 56 c-58 104 -180 154 -304 125z"></path></g></svg>