<svg width="408.000000pt" height="406.000000pt" viewBox="0 0 408.000000 406.000000" xmlns="http://www.w3.org/2000/svg">
  <g transform="translate(0.000000,406.000000) scale(0.100000,-0.100000)" fill="#fefefe" stroke="none">
    <path d="M0 2028 l0 -2028 2040 0 2040 0 0 2030 0 2030 -10 0 c-5 0 -10 -3
-10 -7 0 -5 -152 -7 -337 -6 -186 2 -1100 4 -2031 5 l-1692 3 0 -2027z m4067
1614 c-1 -53 -3 -7 -3 103 0 110 2 154 3 97 2 -57 2 -147 0 -200z m-1777 -228
c574 -99 1036 -562 1136 -1139 l17 -100 1 -150 1 -150 -14 -75 c-118 -650
-624 -1111 -1285 -1171 l-130 -12 -116 12 c-656 72 -1166 562 -1261 1212 l-12
82 6 161 5 161 30 117 c188 729 882 1179 1622 1052z m1777 -241 c-2 -21 -4 -6
-4 32 0 39 2 55 4 38 2 -18 2 -50 0 -70z m0 -445 c-1 -51 -3 -12 -3 87 0 99 2
141 3 93 2 -48 2 -129 0 -180z" />
    <path d="M2581 2905 c-179 -66 -349 -264 -416 -485 -4 -14 -16 -44 -26 -68
l-19 -43 -82 71 -83 71 -75 37 -74 37 -111 0 -110 -1 -53 -27 c-30 -16 -73
-46 -97 -68 l-43 -39 -22 -52 -22 -51 4 -81 3 -81 27 -55 c15 -30 64 -95 108
-144 107 -119 114 -157 37 -219 l-36 -30 -49 -5 -49 -4 -29 15 c-16 8 -37 24
-47 35 l-18 20 20 41 c45 87 7 191 -74 207 l-32 6 -36 -15 -36 -15 -15 -31
-16 -30 0 -49 0 -48 25 -50 c32 -64 70 -98 154 -138 l66 -31 125 0 125 0 47
22 c26 12 70 43 97 68 l50 47 22 57 21 56 -5 61 -4 62 -32 58 c-18 33 -65 97
-106 143 l-75 84 -11 37 -11 37 13 28 c19 39 58 65 106 72 l41 5 54 -24 54
-25 94 -88 c52 -48 98 -94 103 -101 l7 -12 -17 -74 c-10 -40 -20 -75 -24 -78
-4 -3 -30 -124 -59 -270 -100 -504 -210 -707 -377 -691 l-13 1 30 47 c35 54
36 68 14 123 l-16 41 -29 14 c-15 8 -50 15 -76 15 l-48 0 -33 -20 c-18 -11
-41 -34 -52 -52 l-20 -33 0 -53 c0 -120 78 -182 230 -182 l76 0 55 16 c30 9
83 32 117 51 l64 35 95 91 94 92 41 65 c97 153 193 440 235 705 l8 50 80 6
c170 13 298 76 345 170 l20 38 0 59 0 58 -27 26 c-16 15 -40 30 -56 33 l-27 7
-30 -12 c-56 -23 -75 -82 -45 -141 l16 -29 -11 -19 c-22 -41 -159 -91 -213
-77 -38 9 -39 29 -11 154 74 333 129 442 248 487 l48 18 26 -9 27 -10 -3 -24
c-1 -14 -5 -53 -9 -87 l-5 -62 27 -25 28 -26 56 0 57 0 22 16 c33 23 52 67 52
119 l0 46 -19 37 c-24 47 -45 66 -101 91 l-45 21 -85 -1 -85 0 -64 -24z" />
  </g>
  <g transform="translate(0.000000,406.000000) scale(0.100000,-0.100000)" fill="#000000" stroke="none">
    <path d="M1900 3432 c-78 -7 -170 -26 -170 -34 0 -5 -8 -7 -19 -3 -25 8 -51
-4 -52 -24 l-1 -16 -5 13 c-6 16 -33 15 -57 -3 -11 -8 -32 -15 -48 -15 l-28 0
-12 -20 -13 -20 -31 0 -32 0 -5 -14 c-3 -7 -26 -18 -51 -25 -25 -6 -46 -16
-46 -21 0 -6 -7 -10 -15 -10 -8 0 -15 -4 -15 -10 0 -5 -9 -10 -20 -10 -11 0
-20 -4 -20 -9 0 -5 -8 -12 -19 -16 -10 -3 -33 -19 -50 -35 -17 -17 -35 -30
-40 -30 -5 0 -25 -16 -44 -35 -19 -19 -39 -35 -44 -35 -5 0 -16 -11 -23 -25
-7 -14 -19 -25 -27 -25 -7 0 -13 -4 -13 -9 0 -5 -20 -30 -44 -55 -24 -26 -50
-60 -56 -77 -7 -16 -17 -29 -22 -29 -5 0 -16 -17 -25 -37 -8 -21 -21 -42 -29
-46 -8 -4 -14 -16 -14 -26 0 -11 -7 -21 -15 -25 -8 -3 -15 -15 -15 -26 0 -21
-19 -60 -34 -71 -5 -4 -6 -13 -4 -20 3 -8 -4 -22 -14 -33 -10 -11 -18 -27 -18
-36 0 -9 -7 -30 -15 -46 -8 -16 -17 -54 -20 -84 -3 -30 -9 -56 -14 -60 -18
-11 -31 -136 -31 -300 l1 -165 14 -70 c23 -120 33 -157 63 -247 16 -48 37 -94
46 -103 9 -9 16 -23 16 -31 0 -8 5 -14 10 -14 6 0 10 -11 10 -25 0 -14 9 -34
20 -45 11 -11 20 -23 20 -26 0 -3 7 -12 15 -20 8 -9 15 -24 15 -35 0 -10 5
-19 10 -19 6 0 10 -6 10 -12 1 -17 35 -58 49 -58 6 0 13 -11 17 -24 6 -24 56
-76 73 -76 5 0 11 -10 13 -21 2 -12 12 -27 22 -33 11 -6 29 -19 40 -28 11 -10
23 -18 27 -18 4 0 11 -9 14 -20 l6 -20 19 0 19 0 6 -19 c3 -11 15 -23 26 -26
10 -4 19 -10 19 -15 0 -5 16 -14 35 -20 19 -6 35 -16 35 -21 0 -11 73 -49 95
-49 8 0 15 -4 15 -8 0 -12 120 -56 210 -78 41 -11 78 -23 81 -28 4 -5 16 -6
28 -3 l21 5 0 -10 0 -10 36 7 37 6 8 -13 8 -13 207 0 207 0 5 13 c2 6 8 9 14
6 12 -8 131 16 139 28 3 4 27 10 55 13 27 3 50 9 52 15 2 5 12 10 23 10 26 0
99 30 99 41 0 5 9 9 20 9 11 0 20 5 20 10 0 6 9 10 20 10 11 0 28 9 37 20 10
11 23 20 30 20 7 0 22 9 33 20 11 11 27 20 35 20 8 0 15 5 15 10 0 6 7 10 15
10 8 0 15 4 15 9 0 5 9 13 20 16 11 3 20 13 20 21 0 8 7 14 16 14 9 0 54 38
100 85 l84 85 0 20 0 20 20 0 20 0 0 20 0 20 15 0 c8 0 15 7 15 15 0 8 4 15 9
15 5 0 14 14 21 30 7 17 17 30 22 30 l10 0 -5 20 -5 20 12 0 c7 0 17 10 23 23
41 85 54 118 48 127 l-6 10 15 0 c16 0 31 34 22 49 -4 5 0 15 7 23 19 19 50
141 45 177 -2 17 -1 31 4 31 4 0 8 8 8 18 0 10 6 24 13 31 l12 12 0 201 -1
202 -12 4 c-7 2 -12 10 -12 17 0 7 -6 16 -12 18 l-13 5 13 1 12 1 0 40 0 40
-10 0 c-5 0 -10 12 -10 28 -1 40 -27 141 -41 158 -7 9 -13 27 -14 41 0 15 -6
28 -13 31 -7 2 -12 13 -12 25 0 22 -30 79 -56 104 -8 8 -14 22 -14 32 0 10
-11 30 -25 45 -14 15 -25 31 -25 35 0 4 -11 20 -25 35 -14 15 -25 31 -25 35 0
6 -95 105 -170 177 -14 13 -33 24 -43 24 l-17 0 0 15 c0 8 -6 15 -14 15 -8 0
-16 7 -20 15 -3 8 -12 15 -21 15 -8 0 -15 4 -15 9 0 5 -14 12 -31 16 -17 4
-45 20 -62 36 -16 16 -36 29 -43 29 -8 0 -14 4 -14 8 0 5 -24 19 -52 31 -29
13 -64 29 -78 36 -120 62 -470 108 -670 87z m948 -519 c2 -7 9 -13 15 -13 22
-1 87 -71 103 -110 l16 -40 -7 -37 -7 -36 -40 -42 -41 -42 -46 8 -46 9 -28 31
-28 30 7 85 7 84 -21 0 c-11 0 -24 -5 -28 -11 l-6 -11 -25 6 -24 7 -15 -16
c-9 -8 -23 -15 -33 -15 -22 0 -79 -63 -99 -110 -8 -19 -22 -49 -30 -66 l-15
-31 5 -31 5 -32 -10 0 c-5 0 -7 -9 -4 -20 3 -11 1 -20 -4 -20 -5 0 -9 -7 -9
-15 0 -8 -4 -15 -9 -15 -4 0 -18 -50 -30 -111 l-22 -110 6 -30 7 -29 54 0 54
0 0 10 c0 5 6 7 13 4 27 -10 84 22 100 56 4 8 13 23 19 33 l13 18 -11 7 c-6 4
-14 21 -17 39 l-6 31 19 25 c11 14 20 30 20 36 l0 11 53 0 53 0 24 -27 23 -27
5 -47 4 -48 -20 -43 c-11 -24 -22 -51 -25 -60 l-6 -18 -20 0 c-11 0 -25 -9
-31 -20 -6 -11 -19 -20 -28 -20 -10 0 -27 -7 -38 -15 -10 -8 -26 -15 -36 -15
-9 0 -18 -5 -20 -10 -2 -6 -23 -13 -48 -16 -25 -2 -74 -8 -109 -12 l-65 -7 -8
-30 c-4 -16 -5 -51 -2 -77 l7 -48 -15 0 -15 0 -7 -42 c-4 -24 -21 -87 -37
-140 -17 -54 -28 -102 -25 -107 4 -5 0 -16 -9 -24 -8 -8 -19 -37 -25 -64 -14
-65 -29 -101 -45 -107 -8 -3 -19 -23 -25 -45 -6 -23 -15 -41 -19 -41 -5 0 -28
-29 -52 -65 -23 -36 -49 -65 -56 -65 -7 0 -20 -12 -30 -28 -20 -32 -49 -62
-60 -62 -5 0 -20 -12 -34 -28 -37 -39 -64 -57 -109 -72 -22 -7 -40 -17 -40
-22 0 -4 -9 -8 -19 -8 -11 0 -21 -5 -23 -11 -3 -9 -32 -13 -143 -20 -22 -1
-58 2 -79 6 l-39 8 -42 41 -43 41 -12 42 -13 42 13 46 c7 25 17 45 21 45 5 0
9 7 9 15 0 8 5 15 10 15 6 0 10 6 10 14 0 16 26 25 92 32 l47 5 31 -31 c17
-16 35 -30 39 -30 5 0 11 -29 13 -65 l3 -65 -17 0 c-10 0 -18 -6 -18 -12 0 -7
-3 -23 -6 -36 l-6 -22 26 0 26 0 0 15 c0 8 7 15 16 15 9 0 36 10 60 21 l43 22
11 28 c7 15 18 30 25 33 7 2 16 18 20 34 3 17 13 33 21 36 l14 5 0 28 c0 15 7
37 15 47 8 11 15 28 15 38 0 10 4 18 9 18 5 0 12 19 16 43 3 23 10 51 15 62
13 29 40 163 40 196 0 15 4 38 9 51 5 13 24 93 42 178 18 85 37 158 42 161 5
4 10 32 11 64 l0 57 -19 11 c-11 6 -33 26 -49 44 -16 18 -34 33 -40 33 -6 0
-21 16 -33 35 -38 57 -228 126 -245 88 -1 -5 -16 -16 -33 -25 l-30 -17 -9 -42
-10 -43 11 -3 c6 -2 9 -13 6 -24 l-5 -19 36 -35 c20 -18 36 -38 36 -43 0 -6
15 -23 33 -39 17 -16 37 -36 42 -45 6 -8 23 -34 38 -58 l29 -42 5 -73 6 -72
-13 -39 c-17 -52 -87 -144 -110 -144 -6 0 -21 -10 -34 -23 l-22 -22 -60 -13
c-81 -16 -160 -15 -223 4 -29 8 -59 13 -67 10 l-14 -5 0 13 c0 8 -16 21 -35
30 -36 17 -41 22 -90 77 l-30 34 -14 53 -13 52 17 54 17 53 43 10 43 10 32
-13 c17 -7 38 -21 48 -30 l16 -17 4 -64 4 -65 -11 -11 c-6 -6 -11 -21 -11 -34
l0 -23 28 -29 27 -28 53 -1 c28 0 52 3 52 7 0 5 11 12 25 15 37 9 64 40 77 90
l11 43 -21 35 c-12 20 -47 59 -77 86 -30 28 -55 54 -55 57 0 5 -9 18 -36 48
-6 7 -18 42 -28 78 l-18 66 5 49 c10 103 54 194 92 194 7 0 21 11 31 25 10 14
26 25 34 25 9 0 35 9 58 20 l41 20 76 0 77 0 74 -22 c40 -13 74 -28 74 -34 0
-7 20 -21 45 -33 24 -11 49 -30 55 -41 6 -11 20 -20 30 -20 l20 0 0 -15 c0 -8
7 -15 16 -15 9 0 18 -9 21 -20 15 -57 68 39 106 191 7 26 24 61 40 80 15 18
27 39 27 46 0 7 5 13 10 13 13 0 59 50 60 65 1 6 15 21 31 35 17 14 46 39 65
57 18 17 47 37 64 44 16 8 30 17 30 21 0 5 9 8 20 8 11 0 20 5 20 10 0 6 12
10 28 11 15 0 36 4 47 9 11 5 60 9 109 7 l89 -2 5 -12z" />
  </g>
  <g transform="translate(0.000000,406.000000) scale(0.100000,-0.100000)" fill="#090909" stroke="none">
    <path d="M4050 3685 l0 -165 9 0 c17 0 21 33 21 181 l0 149 -15 0 -15 0 0
-165z" />
    <path d="M1990 3430 l0 -10 55 0 55 0 0 10 0 10 -55 0 -55 0 0 -10z" />
    <path d="M2110 3432 c0 -4 16 -8 35 -9 19 -1 35 3 35 8 0 5 -16 9 -35 9 -19 0
-35 -4 -35 -8z" />
    <path d="M1715 3405 c-64 -16 -86 -25 -81 -34 2 -3 -15 -6 -37 -6 -23 -1 -60
-9 -82 -19 -163 -72 -177 -84 -100 -82 47 1 52 5 35 22 l-11 11 39 -1 39 -1
-4 11 c-2 6 3 16 11 23 l15 12 74 2 c41 1 70 5 63 9 l-11 8 42 0 41 0 5 -12 5
-13 1 21 c1 11 -3 24 -9 30 l-10 10 22 1 c11 1 26 7 31 12 l11 11 -19 -1 c-11
-1 -42 -7 -70 -14z" />
    <path d="M2365 3400 l6 -10 -18 -1 -18 -1 30 -9 c16 -4 39 -6 52 -3 l22 6 -4
-22 -4 -22 23 6 c13 3 32 9 42 13 l17 6 -8 -13 -8 -13 13 5 c32 10 17 26 -40
41 -70 20 -73 20 -65 7 3 -5 -1 -10 -9 -10 l-15 0 5 15 6 15 -17 0 -16 0 6
-10z" />
    <path d="M2330 3354 l0 -19 9 14 9 15 14 -11 13 -10 25 8 25 7 -16 1 c-9 1
-31 4 -48 7 l-31 7 0 -19z" />
    <path d="M2634 3305 c11 -8 23 -15 28 -15 4 0 5 -7 2 -15 -4 -8 -2 -15 4 -15
9 0 26 30 20 35 -12 10 -49 25 -60 25 l-13 -1 19 -14z" />
    <path d="M2690 3272 c0 -4 14 -13 31 -21 17 -7 27 -16 22 -20 -5 -3 -9 -15 -9
-26 l0 -20 35 -2 35 -2 -14 9 -15 10 17 0 c9 0 20 -5 23 -10 7 -12 25 -4 25
11 0 5 -6 9 -14 9 -8 0 -21 6 -29 14 -36 36 -107 68 -107 48z" />
    <path d="M4050 3215 l0 -65 15 0 15 0 0 65 0 65 -15 0 -15 0 0 -65z" />
    <path d="M1306 3245 c-10 -8 -23 -16 -29 -18 -19 -6 3 -25 23 -20 11 3 17 10
14 15 l-6 10 20 -11 c29 -16 34 -14 23 8 -6 10 -7 21 -4 25 13 12 -23 5 -41
-9z" />
    <path d="M1216 3185 c-15 -14 -31 -25 -37 -25 -5 0 -9 -7 -9 -15 l0 -14 15 5
c8 4 15 9 15 13 0 4 14 15 30 24 l30 18 23 -6 22 -7 -20 16 c-27 21 -38 20
-69 -9z" />
    <path d="M2838 3184 c-3 -3 -4 -14 -1 -25 l5 -19 18 0 c10 0 23 -7 30 -15 l12
-14 -41 16 c-22 9 -42 23 -44 32 l-5 16 -1 -21 -1 -21 24 -12 c25 -14 91 -19
102 -9 10 11 -7 30 -23 24 l-14 -6 7 11 c4 6 0 15 -7 20 -19 12 -32 11 -24 -1
3 -5 2 -10 -4 -10 -5 0 -13 5 -16 10 -3 6 -1 10 4 10 6 0 11 5 11 10 0 11 -23
14 -32 4z" />
    <path d="M1070 3071 l-10 -20 17 -11 18 -10 -27 6 -27 6 -16 -16 c-9 -9 -14
-20 -10 -26 l6 -10 -15 6 -15 6 -17 -27 c-9 -14 -13 -29 -9 -33 4 -4 10 -1 12
6 3 7 16 17 29 22 13 6 29 21 34 34 l9 24 37 -3 38 -3 -20 15 -19 14 18 10
c23 13 22 29 -3 29 -10 0 -24 -9 -30 -19z" />
    <path d="M2979 3073 c-6 -36 -5 -52 2 -47 5 3 9 12 9 20 l0 15 11 -7 12 -7 -5
13 c-5 16 -27 26 -29 13z" />
    <path d="M2530 2933 l-25 -5 30 -14 30 -14 -27 5 -27 5 -21 -30 -21 -30 13 0
c7 0 20 5 28 10 l15 10 -15 11 -15 11 18 -6 c26 -9 67 4 67 20 0 8 -7 14 -16
14 l-15 0 6 10 c3 6 5 9 3 9 -2 -1 -14 -4 -28 -6z" />
    <path d="M2780 2929 c0 -5 7 -9 15 -9 9 0 35 -9 57 -20 52 -25 61 -25 46 -1
-6 10 -16 18 -22 17 -6 -2 -8 -1 -3 1 19 12 2 20 -43 21 l-50 1 0 -10z" />
    <path d="M923 2910 c-3 -11 -9 -20 -14 -20 -5 0 -14 -11 -19 -25 -5 -14 -13
-25 -18 -25 -5 0 -17 -18 -27 -40 -10 -22 -22 -40 -26 -40 -5 0 -11 -11 -15
-25 -3 -14 -10 -25 -15 -25 -5 0 -9 -7 -9 -15 l0 -15 20 12 c10 7 21 21 22 33
2 11 9 19 16 18 6 -2 12 4 12 12 0 8 5 15 11 15 l11 0 -6 16 -6 15 12 -7 11
-7 -6 17 -7 17 15 5 c8 3 17 14 20 24 l6 19 17 -5 17 -6 -15 11 -15 10 19 18
c10 10 16 13 12 6 -3 -6 -2 -14 4 -18 11 -7 13 5 4 29 -9 22 -25 20 -31 -4z" />
    <path d="M3139 2913 c-1 -4 -3 -36 -4 -70 l-3 -62 16 15 15 15 -12 12 c-14 14
-15 47 -1 47 6 0 11 -10 11 -22 l1 -23 5 18 c2 9 9 15 14 12 5 -4 9 0 9 8 0 8
-7 18 -16 21 l-15 6 7 -12 7 -11 -11 7 c-6 4 -9 13 -6 20 3 8 1 17 -5 21 -6 3
-12 3 -12 -2z" />
    <path d="M2938 2872 c-3 -11 3 -37 13 -58 10 -22 18 -45 19 -51 0 -7 5 -13 11
-13 l11 0 -7 23 c-4 12 -12 41 -19 64 -14 51 -22 60 -28 35z" />
    <path d="M2419 2858 c-13 -39 1 -57 30 -39 l14 9 -8 18 -8 19 -4 -18 c-3 -9
-9 -15 -14 -11 -5 3 -7 10 -4 15 4 5 4 9 1 9 -3 0 -6 -1 -7 -2z" />
    <path d="M2628 2828 c-29 -10 -37 -31 -17 -44 6 -3 14 -1 18 5 l8 12 27 -11
c15 -5 35 -10 44 -9 9 1 0 6 -20 11 -21 6 -38 14 -38 18 l0 9 32 -10 c17 -5
34 -6 37 -4 2 3 1 5 -4 5 -4 0 -2 7 5 15 l12 15 -38 -1 c-22 0 -51 -5 -66 -11z" />
    <path d="M4050 2765 l0 -45 15 0 15 0 0 45 0 45 -15 0 -15 0 0 -45z" />
    <path d="M2365 2773 l-28 -28 6 18 7 18 -10 -6 c-15 -10 -12 -35 5 -35 16 0
65 39 65 52 0 15 -17 8 -45 -19z" />
    <path d="M2739 2798 c-1 -2 -3 -22 -5 -45 l-4 -43 10 0 c6 0 10 10 10 23 0 12
3 32 6 45 l6 22 -11 0 c-6 0 -11 -1 -12 -2z" />
    <path d="M2552 2778 c-7 -7 -12 -18 -12 -26 l0 -13 12 7 11 7 -7 -11 c-4 -6
-13 -9 -21 -6 l-14 6 -17 -39 c-9 -21 -21 -46 -26 -56 -5 -11 -7 -21 -4 -24 8
-9 37 18 30 28 -3 5 0 17 6 26 l11 18 -6 -22 -6 -23 11 0 12 0 -2 28 c-3 42
-1 45 17 31 9 -8 14 -9 11 -4 -3 6 2 27 12 48 l18 37 -12 0 c-7 0 -17 -5 -24
-12z" />
    <path d="M3001 2742 l-1 -44 12 4 c13 5 41 78 29 78 -5 0 -12 -15 -16 -32 l-8
-33 -7 35 -7 35 -2 -43z" />
    <path d="M3250 2735 c0 -3 12 -18 26 -33 14 -15 23 -20 20 -12 -3 8 -9 23 -12
33 -6 15 -34 25 -34 12z" />
    <path d="M2306 2702 c-4 -7 -12 -9 -18 -6 l-11 7 6 -17 7 -18 -15 6 -15 5 0
-18 c0 -10 -15 -36 -34 -57 -18 -21 -33 -45 -31 -53 1 -9 -3 -19 -9 -23 l-11
-7 11 -11 11 -11 21 33 c11 18 23 44 27 58 4 14 16 32 26 41 11 9 19 21 19 27
0 6 7 15 16 20 9 5 15 15 12 23 l-4 13 -8 -12z" />
    <path d="M2547 2668 c-3 -12 -4 -25 -1 -30 10 -16 19 -7 20 22 1 35 -11 40
-19 8z" />
    <path d="M2734 2650 c2 -17 12 -40 22 -51 l18 -20 30 3 c16 2 31 9 34 16 l4
12 -21 0 c-11 0 -23 5 -26 10 -3 6 -13 10 -21 10 l-15 0 6 -11 c4 -6 17 -14
29 -19 l21 -9 -16 0 c-8 -1 -26 11 -40 26 -13 14 -18 23 -11 19 l12 -7 0 10
c0 17 -12 41 -21 41 -5 0 -7 -14 -5 -30z" />
    <path d="M760 2645 c0 -14 -4 -25 -10 -25 -5 0 -10 -9 -10 -20 0 -11 -4 -20
-8 -20 -10 0 -32 -67 -32 -94 l0 -17 10 6 c6 3 10 16 10 28 0 12 7 30 14 40
l14 18 7 -11 8 -12 8 13 c5 8 8 23 8 34 l-1 20 -7 -25 -7 -25 -6 23 c-3 12 -2
22 3 22 5 0 9 6 9 14 0 8 5 18 12 22 l11 7 -7 -19 -7 -19 10 10 c14 14 2 55
-15 55 l-14 0 0 -25z" />
    <path d="M3295 2661 c-3 -6 -4 -28 -3 -49 l3 -39 13 4 c6 3 12 0 12 -6 0 -6
-4 -11 -10 -11 -5 0 -10 -5 -10 -11 l0 -11 15 5 14 6 26 -32 25 -32 0 18 c0 9
-4 17 -10 17 -5 0 -10 10 -10 23 0 12 -9 41 -20 65 l-20 43 -10 -6 -10 -6 6
15 c7 17 -1 22 -11 7z" />
    <path d="M2902 2615 c-45 -22 -46 -35 -3 -35 24 1 78 30 55 30 -5 0 -3 4 4 9
l14 8 -14 5 c-7 2 -32 -5 -56 -17z" />
    <path d="M2480 2573 l0 -21 -17 2 -16 1 -8 -30 c-5 -16 -7 -36 -4 -42 2 -7 0
-13 -5 -13 -6 0 -10 -7 -10 -16 0 -8 4 -13 9 -9 5 3 12 -7 14 -22 l4 -28 2 43
c1 35 21 64 21 30 0 -6 2 -9 5 -6 3 3 1 17 -4 32 l-11 26 9 0 c11 0 26 59 17
67 -3 4 -6 -3 -6 -14z" />
    <path d="M1532 2531 l-14 -8 18 -7 c24 -9 124 4 124 16 l0 10 -37 -4 c-21 -3
-47 -9 -57 -13 l-19 -8 7 11 c8 14 -3 15 -22 3z" />
    <path d="M1817 2534 c-9 -10 4 -34 19 -34 l14 0 0 20 c0 19 -19 27 -33 14z" />
    <path d="M1890 2530 c0 -6 -7 -10 -15 -10 -8 0 -15 -7 -15 -15 0 -8 7 -15 15
-15 8 0 15 -4 15 -10 0 -5 7 -10 15 -10 8 0 15 -4 15 -10 0 -5 8 -10 18 -10
l17 1 -17 13 c-10 7 -18 18 -18 25 0 6 -10 11 -22 11 l-23 1 24 13 23 13 -16
6 c-9 4 -16 2 -16 -3z" />
    <path d="M1480 2490 c0 -5 -10 -10 -22 -11 l-23 0 22 -11 c12 -6 29 -8 37 -5
20 8 21 37 1 37 -8 0 -15 -4 -15 -10z" />
    <path d="M2170 2490 c4 -27 0 -41 -9 -36 l-9 6 1 -35 c1 -48 10 -44 26 11 l14
45 -13 12 -12 12 2 -15z" />
    <path d="M1360 2431 l0 -24 23 21 c34 32 45 27 15 -5 -14 -16 -28 -40 -32 -55
l-6 -28 10 0 c5 0 10 4 10 10 0 5 14 22 30 37 l31 27 -3 21 -3 20 -37 0 -38 1
0 -25z" />
    <path d="M2604 2424 l2 -34 -10 3 c-6 2 -10 14 -8 27 l4 22 -11 -6 c-16 -10
-14 -32 5 -50 8 -9 17 -33 19 -53 l5 -38 -8 25 c-9 28 -18 18 -20 -23 l-2 -27
28 17 27 18 -14 -18 -13 -17 17 0 17 0 -7 33 c-4 17 -7 51 -7 74 l-1 43 -8 -6
c-5 -3 -9 0 -9 5 0 6 5 11 10 11 15 0 12 17 -5 23 l-14 6 3 -35z" />
    <path d="M2730 2452 c0 -4 13 -13 29 -19 l29 -10 7 -32 c3 -17 11 -31 17 -31
l10 0 -7 28 c-3 15 -11 29 -16 30 l-10 4 12 14 12 14 -16 -5 c-8 -4 -18 -2
-22 4 -7 13 -45 15 -45 3z" />
    <path d="M1960 2435 c0 -8 5 -15 10 -15 6 0 26 -16 46 -35 19 -19 41 -35 49
-35 8 0 15 -4 15 -10 0 -5 7 -10 16 -10 l16 0 -6 16 -6 15 9 -5 c9 -6 35 54
27 62 -3 2 -8 -7 -12 -22 -3 -14 -10 -26 -14 -26 -5 0 -16 -3 -25 -6 -9 -4
-15 -3 -14 2 0 5 -2 19 -6 32 l-7 22 -22 0 c-11 0 -30 7 -40 15 -25 19 -36 19
-36 0z" />
    <path d="M3377 2433 c-11 -10 -8 -35 3 -28 14 9 12 -8 -2 -24 l-13 -14 13 7
12 7 1 -38 c1 -21 3 -30 6 -20 2 9 9 15 14 12 13 -8 11 13 -4 57 -15 43 -21
51 -30 41z" />
    <path d="M2405 2394 c-8 -44 -4 -49 18 -24 l17 20 -11 0 -10 0 6 20 6 20 -9 0
c-5 0 -13 -16 -17 -36z" />
    <path d="M671 2400 c-5 -8 -11 -28 -15 -43 l-7 -28 16 -15 15 -15 2 28 c1 15
1 37 1 47 l0 19 14 -18 13 -19 0 16 c0 9 2 23 5 30 l5 14 -21 0 c-11 0 -24 -7
-28 -16z" />
    <path d="M1735 2411 c3 -5 -7 -11 -22 -14 -16 -2 -3 -4 27 -4 30 0 65 -3 78
-7 l22 -7 0 11 c0 14 -43 30 -81 30 l-30 0 6 -9z" />
    <path d="M1632 2393 c-11 -10 -24 -34 -27 -53 l-8 -35 17 14 c9 8 15 20 14 27
-2 7 0 13 5 13 8 1 47 38 47 46 0 11 -29 4 -48 -12z" />
    <path d="M1670 2370 c0 -6 -10 -26 -22 -45 l-23 -35 -13 5 -14 5 7 -33 c4 -17
14 -36 21 -40 8 -4 14 -14 14 -21 0 -7 8 -20 19 -30 l18 -16 15 5 16 6 0 -27
0 -28 24 -21 c13 -11 27 -29 31 -39 l7 -17 22 3 23 3 -3 -32 c-2 -37 13 -45
23 -12 l7 20 -18 20 c-9 10 -19 17 -22 14 -7 -7 -42 26 -42 39 0 6 -9 17 -21
24 l-21 13 11 13 10 12 -19 17 c-11 9 -25 17 -31 17 -6 0 -9 6 -6 13 2 7 -8
26 -24 41 -29 29 -36 46 -21 46 5 0 15 -11 22 -25 7 -14 15 -23 18 -21 2 3 -4
18 -14 34 l-17 30 16 17 c16 15 24 55 12 55 -3 0 -5 -5 -5 -10z" />
    <path d="M1854 2359 l1 -22 34 -18 c19 -10 39 -26 44 -34 4 -8 12 -13 16 -10
5 2 16 -4 25 -14 l17 -19 -11 -7 c-6 -4 -18 -4 -26 -1 l-15 6 7 -11 6 -11 24
6 24 6 0 -10 c0 -6 3 -9 8 -6 11 6 47 -22 38 -31 -4 -4 -11 -1 -16 7 -16 26
-23 2 -25 -91 l-2 -91 8 14 9 13 0 -12 c0 -7 5 -13 10 -13 6 0 10 11 10 25 0
14 4 25 9 25 5 0 12 16 16 36 l6 37 -13 8 c-21 14 -36 10 -41 -8 l-5 -18 -1
23 -1 23 15 5 c8 4 23 0 31 -7 l17 -14 -7 33 -8 32 -65 62 c-67 65 -89 79
-112 70 l-13 -5 7 21 6 22 -14 0 -14 0 1 -21z m196 -249 c0 -6 -9 -20 -20 -32
-23 -25 -25 -20 -8 17 11 25 28 34 28 15z" />
    <path d="M2390 2326 c0 -7 -3 -29 -6 -47 l-7 -34 13 12 c7 6 14 28 17 47 l3
36 -10 0 c-5 0 -10 -6 -10 -14z" />
    <path d="M1351 2312 c-13 -25 -14 -52 -2 -52 9 0 24 60 17 67 -2 3 -9 -4 -15
-15z" />
    <path d="M3409 2293 l-1 -18 -5 13 c-2 6 -11 12 -19 12 l-14 0 1 -27 1 -28 9
25 9 25 -5 -37 c-4 -38 10 -53 18 -20 l5 17 1 -17 c2 -39 19 -15 19 27 0 42
-17 67 -19 28z" />
    <path d="M2800 2286 c0 -8 -18 -38 -40 -67 l-39 -53 11 -13 c6 -7 18 -13 27
-13 l16 0 -15 10 -15 10 18 11 c9 5 17 17 17 25 0 8 6 25 14 37 8 12 17 32 21
45 l6 22 -10 0 c-6 0 -11 -6 -11 -14z" />
    <path d="M2573 2243 l5 -23 -11 -1 c-7 -1 -22 0 -33 0 -21 2 -60 -27 -50 -37
10 -9 95 20 100 34 3 8 12 14 21 14 8 0 15 7 15 15 0 18 -16 20 -23 3 l-5 -13
-12 15 -12 15 5 -22z" />
    <path d="M1710 2212 c0 -13 39 -46 46 -39 8 8 -4 25 -27 37 l-19 11 0 -9z" />
    <path d="M2410 2180 c0 -5 14 -10 30 -10 17 0 30 5 30 10 0 6 -13 10 -30 10
-16 0 -30 -4 -30 -10z" />
    <path d="M1346 2153 c4 -16 10 -38 15 -49 4 -12 6 -34 4 -50 -1 -16 0 -34 2
-41 l5 -14 14 18 c16 21 18 10 4 -18 l-11 -19 11 0 c6 0 16 12 22 26 l12 25
-10 7 c-13 10 -40 71 -48 110 -4 17 -12 32 -17 32 l-9 0 6 -27z" />
    <path d="M620 2130 c0 -16 5 -30 10 -30 6 0 10 14 10 30 0 17 -4 30 -10 30 -5
0 -10 -13 -10 -30z" />
    <path d="M3430 2136 c0 -14 5 -28 10 -31 l10 -6 0 30 c0 17 -4 31 -10 31 -5 0
-10 -11 -10 -24z" />
    <path d="M2665 2106 c-10 -6 -25 -16 -32 -23 l-12 -11 14 -6 15 -5 -3 12 -2
12 28 3 27 3 0 -17 0 -18 11 11 11 11 -18 20 -19 20 -20 -12z" />
    <path d="M2543 2093 c-35 -4 -43 -17 -18 -27 18 -6 75 12 75 25 0 5 -6 8 -12
7 -7 0 -28 -3 -45 -5z" />
    <path d="M620 1985 l0 -85 10 0 10 0 0 85 0 85 -10 0 -10 0 0 -85z" />
    <path d="M2360 2058 c0 -7 -3 -24 -7 -37 l-6 -24 11 6 c5 4 13 1 16 -5 4 -7 4
1 2 18 l-5 31 12 12 11 11 -17 0 c-9 0 -17 -6 -17 -12z" />
    <path d="M1416 1995 l-5 -15 13 0 c8 0 17 -11 20 -25 4 -14 11 -25 16 -25 6 0
10 -7 10 -15 0 -17 25 -20 35 -5 l6 10 -17 -7 -17 -6 6 16 6 17 -10 -3 c-6 -1
-13 9 -15 22 -8 44 -36 65 -48 36z" />
    <path d="M1206 1991 l-7 -11 18 0 c10 0 29 -3 43 -6 l25 -7 -10 11 c-5 6 -22
14 -36 17 l-27 7 -6 -11z" />
    <path d="M1147 1983 l-28 -4 4 -12 c2 -7 1 -19 -3 -27 -4 -8 -10 -27 -14 -42
l-6 -28 9 0 c5 0 12 13 16 30 4 16 20 41 36 54 28 24 37 38 22 35 -5 -1 -21
-4 -36 -6z" />
    <path d="M1295 1970 c-4 -6 3 -25 14 -44 12 -18 21 -45 21 -60 l0 -27 10 6 11
7 -7 20 -6 21 11 -7 11 -7 0 20 0 21 -16 0 c-8 0 -12 4 -9 10 7 11 -12 50 -25
50 -5 0 -12 -5 -15 -10z" />
    <path d="M2002 1945 c-1 -19 3 -35 8 -35 6 0 10 16 10 35 0 19 -4 35 -8 35 -5
0 -9 -16 -10 -35z" />
    <path d="M2342 1940 l-1 -40 15 0 14 0 0 40 0 40 -14 0 -14 0 0 -40z" />
    <path d="M1539 1850 c-7 -5 -10 -12 -6 -17 5 -4 12 -1 16 6 l9 14 6 -20 c3
-11 0 -37 -9 -59 l-15 -39 7 40 6 39 -17 -16 -17 -17 7 -26 6 -25 -18 0 -19 0
13 -9 14 -8 -27 -7 -27 -7 -12 10 -12 10 -14 -9 c-14 -9 -13 -11 9 -14 5 0 13
-5 18 -10 l8 -9 -25 7 c-14 4 -40 9 -58 13 l-33 6 -16 23 c-8 13 -19 24 -24
24 -16 0 -10 -26 11 -50 l20 -23 49 -8 49 -7 37 8 c21 5 41 13 44 18 3 4 14
11 24 15 9 3 24 22 33 41 l17 34 -7 35 c-7 37 -24 51 -47 37z" />
    <path d="M1105 1823 c9 -23 16 -68 18 -117 l2 -39 15 -5 15 -5 -14 17 c-8 9
-11 19 -8 22 3 3 12 -3 19 -15 l13 -21 22 0 22 0 -3 -12 c-1 -7 -1 -10 1 -6 2
4 11 4 19 1 18 -7 18 5 -2 24 -8 9 -26 16 -40 16 l-25 0 6 16 c2 9 -6 38 -20
65 -14 27 -25 55 -25 63 0 7 -5 13 -11 13 l-11 0 7 -17z" />
    <path d="M1812 1793 c-7 -21 -16 -47 -19 -58 l-6 -20 16 14 17 13 0 -11 c0
-11 -13 -15 -36 -12 -7 1 -26 -14 -43 -34 -16 -19 -35 -35 -41 -35 -5 0 -10
-5 -10 -11 l0 -11 16 6 17 6 -13 -15 -12 -15 11 0 c6 0 11 -4 11 -10 0 -5 -11
-10 -25 -10 -14 0 -25 5 -25 11 l0 10 12 -7 11 -7 -7 11 c-10 16 -24 15 -42
-2 -17 -17 -11 -22 37 -25 l35 -2 23 19 24 18 -13 25 c-7 13 -9 21 -5 17 10
-9 45 9 45 24 l0 10 -17 -13 -18 -14 13 17 13 17 15 -6 14 -5 6 16 c3 9 10 14
14 11 l9 -5 -8 27 c-5 16 -5 37 0 48 10 26 11 45 1 45 -4 0 -13 -17 -20 -37z" />
    <path d="M1323 1805 c-7 -8 -13 -22 -13 -32 l1 -18 19 24 c22 26 26 21 9 -11
l-11 -20 15 -15 15 -15 7 13 8 12 -12 -7 -12 -8 3 43 3 42 -10 3 c-5 2 -16 -3
-22 -11z" />
    <path d="M3417 1813 c-4 -3 -7 -15 -7 -25 0 -10 -4 -18 -10 -18 l-9 0 6 18 7
17 -17 -17 c-21 -21 -22 -34 -2 -42 8 -3 15 -13 15 -23 l-1 -18 -15 20 -16 20
7 -25 c7 -23 22 -39 36 -40 8 0 23 129 17 136 -3 2 -8 1 -11 -3z" />
    <path d="M676 1753 l6 -38 -16 20 -17 20 7 -35 c8 -44 10 -46 27 -29 l13 14
-4 43 c-2 23 -8 42 -14 42 l-9 0 7 -37z" />
    <path d="M2296 1768 c-9 -34 -7 -58 4 -58 l9 0 -6 17 -6 16 12 -8 13 -8 -7 23
-7 23 12 -8 13 -8 -5 13 c-7 23 -25 22 -32 -2z" />
    <path d="M2260 1635 c0 -19 -4 -35 -10 -35 -5 0 -10 -7 -10 -15 l0 -14 14 5
c18 7 40 59 32 79 -10 27 -26 16 -26 -20z" />
    <path d="M2304 1633 c-4 -16 -11 -34 -17 -40 l-9 -13 11 0 c6 0 11 5 11 11 0
5 5 7 10 4 l10 -6 0 20 c0 10 3 26 6 35 l6 16 -11 0 c-6 0 -14 -12 -17 -27z" />
    <path d="M3372 1615 c0 -19 4 -35 9 -35 5 0 9 13 9 29 0 17 -4 32 -9 35 l-9 6
0 -35z" />
    <path d="M1277 1614 c3 -9 1 -19 -5 -23 -6 -3 16 -6 49 -6 72 0 74 5 10 28
-60 21 -62 21 -54 1z" />
    <path d="M3296 1502 c0 -88 -4 -114 -18 -106 -5 3 -18 -2 -29 -12 l-19 -17 6
-20 6 -20 -11 7 -11 7 7 -17 6 -17 -12 8 -13 8 6 -20 c8 -26 -2 -53 -18 -47
l-12 5 -17 -36 c-19 -39 -22 -65 -8 -65 12 0 23 29 16 41 l-6 9 15 -6 16 -6
12 29 c7 15 17 31 22 34 5 4 6 14 3 22 l-6 16 16 -6 15 -6 -7 40 -6 40 15 6
c9 4 16 2 16 -3 0 -24 18 -6 35 33 10 23 26 60 36 83 19 41 24 76 12 87 -10
10 -35 -45 -29 -66 2 -11 2 -16 -1 -13 -4 3 -12 1 -20 -5 l-13 -11 0 11 c0 6
5 11 11 11 5 0 7 5 4 10 -4 6 0 24 9 40 8 17 10 30 5 30 -5 0 -9 -5 -9 -11 l0
-11 -12 10 -13 10 1 -76z" />
    <path d="M1914 1508 c-36 -55 -43 -88 -20 -88 l14 0 11 46 c12 47 10 66 -5 42z" />
    <path d="M2220 1505 c0 -8 -4 -15 -9 -15 -10 0 -24 -61 -16 -69 4 -3 10 1 15
9 l10 15 0 -12 c0 -7 5 -13 10 -13 l11 0 -12 23 -12 22 14 -12 14 -11 -1 29
c-2 45 -3 49 -14 49 -5 0 -10 -7 -10 -15z" />
    <path d="M745 1480 c-9 -27 3 -60 22 -60 l15 0 -6 16 -6 15 9 -5 c13 -9 22 23
12 41 l-9 16 -6 -21 c-4 -12 -12 -22 -17 -22 -13 0 -11 14 3 28 l12 12 -11 0
c-7 0 -15 -9 -18 -20z" />
    <path d="M1848 1455 c-3 -6 0 -25 7 -43 l14 -32 16 0 c8 0 15 7 15 16 0 8 -4
13 -9 10 -11 -7 -28 13 -33 39 l-3 20 -7 -10z" />
    <path d="M784 1378 c3 -18 10 -34 15 -38 4 -3 11 -15 15 -27 4 -13 11 -23 16
-23 4 0 11 -12 14 -26 9 -33 28 -26 33 12 l3 29 -7 -11 -8 -12 -13 14 -13 14
15 0 c7 0 16 7 20 15 7 18 -10 20 -17 3 l-5 -13 -11 15 c-6 8 -11 11 -11 5 -1
-20 -30 30 -30 52 0 13 -5 23 -11 23 l-11 0 6 -32z" />
    <path d="M1856 1346 c-20 -31 -20 -46 -2 -46 l14 0 6 32 c8 40 3 45 -18 14z" />
    <path d="M2134 1345 c-3 -14 -10 -25 -15 -25 -5 0 -9 -8 -9 -17 l0 -18 20 25
c11 14 20 21 20 16 0 -5 -7 -18 -17 -28 -9 -10 -13 -21 -9 -25 4 -5 13 1 19
12 l11 20 7 -25 7 -25 -2 57 -1 58 -12 0 c-7 0 -15 -11 -19 -25z" />
    <path d="M1518 1330 c-2 -6 -17 -13 -33 -14 -87 -7 -112 -23 -124 -78 -5 -18
-11 -43 -15 -55 l-7 -23 8 0 c12 0 36 68 28 80 l-6 10 14 -6 15 -5 21 27 21
27 64 -2 64 -2 7 11 c3 6 11 8 16 5 5 -4 9 -2 9 3 0 6 -13 15 -30 21 l-30 10
0 -12 0 -12 -9 14 -9 13 -4 -12z" />
    <path d="M1590 1278 c0 -10 4 -18 8 -18 24 0 38 -90 20 -120 l-12 -20 11 -11
c6 -6 17 -8 23 -4 l12 7 -6 27 -7 26 11 -15 10 -15 0 17 c0 9 -4 20 -10 23 -5
3 -10 11 -10 17 l0 10 15 -12 c9 -7 18 -10 22 -6 3 3 1 6 -5 6 -7 0 -12 7 -12
16 l0 15 -12 -7 -11 -7 6 11 c9 13 -2 42 -15 42 -6 0 -17 8 -24 18 l-13 17 -1
-17z" />
    <path d="M1828 1266 c-10 -7 -18 -18 -18 -25 0 -6 -5 -11 -11 -11 l-11 0 6
-15 6 -16 -14 -5 c-8 -3 -19 -17 -25 -32 -6 -15 -25 -35 -41 -44 l-30 -17 -1
27 -2 27 -4 -25 c-6 -31 -11 -36 -45 -44 l-28 -6 0 15 c0 8 -5 15 -11 15 l-10
0 3 -27 3 -28 24 -3 24 -4 28 21 c15 12 32 21 37 21 13 0 82 66 82 79 0 6 3
11 8 11 4 0 13 15 21 33 8 17 19 35 24 38 5 4 8 11 6 17 l-4 11 -17 -13z" />
    <path d="M2042 1227 c-23 -25 -29 -43 -11 -31 6 3 15 0 20 -7 l9 -14 0 18 c0
9 5 17 11 17 5 0 7 5 4 10 -3 6 -1 10 5 10 6 0 8 5 5 10 -9 15 -19 12 -43 -13z" />
    <path d="M916 1208 l7 -23 -18 15 -17 14 4 -19 4 -20 17 1 c9 1 14 -2 11 -7
-6 -11 13 -49 26 -49 5 0 8 13 8 30 l-1 29 -15 6 -14 5 5 20 5 20 -15 0 -14 0
7 -22z" />
    <path d="M1320 1166 c0 -8 -6 -17 -12 -19 l-13 -5 11 -9 c6 -4 14 -15 17 -23
3 -8 6 4 6 28 1 23 -1 42 -4 42 -3 0 -5 -6 -5 -14z" />
    <path d="M1983 1160 c-3 -11 -12 -20 -19 -20 -19 0 -18 -26 2 -34 l15 -6 -6
10 c-3 5 3 18 15 30 22 22 26 40 9 40 -6 0 -13 -9 -16 -20z" />
    <path d="M3117 1158 c-10 -8 -18 -18 -17 -23 5 -22 -1 -29 -10 -15 l-10 15 0
-13 c0 -7 7 -15 16 -19 l16 -6 15 15 c8 9 13 25 11 37 l-3 22 -18 -13z" />
    <path d="M1344 1104 c3 -9 9 -27 12 -40 3 -13 11 -24 16 -24 l10 0 -6 16 c-3
9 -9 27 -12 40 -3 13 -11 24 -16 24 l-10 0 6 -16z" />
    <path d="M970 1101 c0 -14 50 -71 62 -71 5 0 8 10 6 23 -2 12 -9 21 -16 20 -6
-2 -12 5 -12 14 0 9 -3 13 -7 10 -3 -4 -12 -2 -20 4 l-13 11 0 -11z" />
    <path d="M1893 1085 c-43 -38 -46 -40 -80 -54 -18 -7 -33 -17 -33 -22 0 -12 1
-12 45 7 21 8 44 13 51 10 l14 -5 0 19 c0 20 14 27 23 13 2 -5 3 -3 1 3 -1 7
4 21 12 33 l15 21 -10 0 c-5 0 -23 -11 -38 -25z" />
    <path d="M3065 1081 c3 -5 -7 -11 -22 -13 -14 -2 -28 -9 -31 -16 l-4 -14 23
12 24 13 -18 -21 c-11 -11 -24 -19 -30 -18 -7 2 -9 1 -4 -1 11 -7 -2 -23 -19
-23 -8 0 -13 4 -10 8 8 14 -51 7 -69 -8 -27 -22 -16 -31 17 -14 l32 16 18 -11
c24 -15 22 -16 73 33 47 46 56 66 29 66 -8 0 -13 -4 -9 -9z" />
    <path d="M1375 1030 c-3 -5 -2 -10 2 -10 5 0 22 -12 39 -27 44 -41 160 -67
139 -32 -4 5 -19 9 -34 9 -34 0 -81 22 -106 50 -20 22 -31 25 -40 10z" />
    <path d="M1075 1006 l-8 -19 24 -18 c26 -20 49 -25 49 -10 0 5 -7 12 -16 15
l-16 6 6 15 c3 8 1 15 -4 15 -6 0 -10 -6 -11 -12 0 -7 -4 -4 -9 7 l-8 20 -7
-19z" />
    <path d="M1814 999 l-6 -11 -33 6 -32 6 -36 -15 c-20 -8 -48 -15 -62 -15 -14
0 -25 -4 -25 -9 0 -14 21 -25 29 -15 3 5 26 10 50 12 25 1 51 8 58 14 7 5 23
8 36 4 l23 -5 12 19 12 20 -9 0 c-6 0 -13 -5 -17 -11z" />
    <path d="M2916 958 c-15 -21 -13 -38 5 -38 12 0 49 37 49 50 0 19 -39 10 -54
-12z" />
    <path d="M1155 929 c-7 -10 21 -38 38 -39 12 0 8 18 -9 34 -18 19 -21 19 -29
5z" />
    <path d="M2860 930 l-15 -10 25 -1 25 -1 -20 -8 c-11 -4 -30 -10 -42 -15 -13
-4 -23 -14 -23 -21 0 -14 -5 -16 -50 -18 l-25 -1 3 -13 c1 -7 -2 -22 -8 -32
-12 -23 -10 -24 25 -8 31 14 31 22 3 37 l-23 11 28 -5 c15 -3 39 -2 53 1 l25
6 -5 13 -5 13 21 -6 21 -5 -6 15 -6 16 19 -5 c23 -6 35 14 20 32 -14 17 -20
18 -40 5z" />
    <path d="M1253 843 c8 -8 30 -16 48 -17 l34 -2 -2 -12 -3 -11 17 6 16 6 -19
14 c-10 7 -26 13 -37 13 -10 0 -16 3 -13 8 2 4 -9 8 -26 9 l-30 1 15 -15z" />
    <path d="M2684 801 c-10 -17 -21 -28 -24 -26 -4 2 -24 0 -44 -6 l-38 -10 6
-15 5 -14 -22 5 -23 6 -28 -14 -28 -15 21 -7 c26 -8 46 -2 134 37 62 29 84 48
55 48 -7 0 -2 9 12 20 l25 20 -17 0 c-9 0 -25 -13 -34 -29z" />
    <path d="M1380 771 c30 -24 47 -27 47 -6 l0 15 -18 0 c-9 0 -26 3 -36 6 l-18
6 25 -21z" />
    <path d="M1516 753 l4 -23 -10 0 c-5 0 -10 4 -10 10 0 5 -7 7 -15 4 -22 -9
-18 -21 8 -28 l22 -5 3 9 c2 6 16 11 30 11 l27 2 -22 4 c-13 2 -23 9 -23 15
l0 10 25 -4 c14 -3 25 -1 25 3 0 10 -3 11 -41 13 l-27 2 4 -23z" />
    <path d="M1565 710 c-8 -14 74 -48 133 -56 l52 -7 0 9 c-1 21 -18 29 -65 30
-28 0 -65 8 -83 16 l-32 16 -5 -8z" />
    <path d="M1820 690 l15 -10 -19 0 c-11 0 -17 -3 -14 -6 3 -3 23 -2 44 2 l39 8
-25 7 c-14 4 -32 7 -40 8 l-15 1 15 -10z" />
    <path d="M2310 689 l0 -10 23 6 22 6 -13 -9 -14 -9 17 -7 c23 -8 25 -8 23 7
-6 25 -58 40 -58 16z" />
    <path d="M2398 692 l-18 -3 15 -15 14 -15 46 12 c76 19 25 38 -57 21z" />
    <path d="M2270 670 c0 -5 -17 -11 -37 -11 l-38 -1 30 -8 c17 -4 38 -8 48 -9
l18 -1 -6 10 -6 10 16 0 16 0 -6 -10 -6 -10 15 0 c24 0 19 27 -6 34 -32 8 -38
7 -38 -4z" />
    <path d="M1777 651 l5 -21 22 0 c12 0 26 4 32 9 5 5 20 11 34 14 l25 4 -47 2
c-25 0 -53 4 -61 7 l-16 6 6 -21z" />
    <path d="M2145 630 l-6 -10 30 0 c17 0 31 5 31 10 0 6 -11 10 -24 10 -14 0
-28 -4 -31 -10z" />
  </g>
  <g transform="translate(0.000000,406.000000) scale(0.100000,-0.100000)" fill="#121212" stroke="none">
    <path d="M4050 3862 l0 -29 15 0 15 0 0 29 0 28 -15 0 -15 0 0 -28z" />
    <path d="M1945 3430 c3 -5 17 -10 30 -10 13 0 27 5 30 10 l6 10 -36 0 -36 0 6
-10z" />
    <path d="M1548 3363 c-26 -7 -22 -20 6 -20 14 0 27 6 30 13 l5 14 -12 -1 c-7
-1 -20 -3 -29 -6z" />
    <path d="M2570 3331 c0 -6 10 -11 23 -11 l22 0 -15 -10 c-8 -5 -10 -10 -5 -10
41 0 42 25 2 35 l-27 7 0 -11z" />
    <path d="M1383 3290 c-18 -11 -33 -24 -33 -30 l0 -11 23 13 c12 7 29 11 37 9
8 -2 12 0 8 5 -4 4 0 13 10 20 l17 13 -15 1 c-8 0 -30 -9 -47 -20z" />
    <path d="M4050 3287 l0 -24 15 0 16 0 -6 14 c-3 8 -5 19 -5 24 0 5 -4 9 -10 9
-5 0 -10 -10 -10 -23z" />
    <path d="M2754 3241 c4 -5 0 -12 -6 -15 -7 -3 -2 -3 11 0 l24 6 -7 -10 c-5 -8
18 -21 47 -26 4 0 12 -7 16 -15 l9 -13 6 10 c6 10 -34 42 -52 42 -5 0 -15 7
-22 15 -13 16 -35 21 -26 6z" />
    <path d="M4050 3138 c0 -30 14 -38 24 -12 10 26 7 41 -9 41 l-15 0 0 -29z" />
    <path d="M2887 3153 c-4 -3 -2 -13 3 -23 5 -10 7 -20 4 -22 -3 -3 8 -4 23 -2
l29 3 32 -31 c18 -16 36 -27 39 -24 3 3 -6 15 -21 27 -14 11 -32 27 -40 34
l-13 14 -22 -6 -21 -5 0 11 0 10 15 -5 c8 -4 15 -4 15 0 0 9 -37 26 -43 19z" />
    <path d="M3081 2962 l-14 -15 14 5 c8 3 24 -4 37 -15 29 -27 29 -9 -1 19 l-22
21 -14 -15z" />
    <path d="M2770 2929 c0 -5 6 -9 13 -9 6 0 23 -3 37 -7 l25 -6 -13 15 c-13 16
-62 22 -62 7z" />
    <path d="M2512 2891 c2 -19 -4 -24 -12 -11 l-10 15 0 -17 c0 -21 -1 -21 39 -7
37 13 41 27 6 27 -13 0 -24 -3 -23 -7z" />
    <path d="M4050 2847 l0 -54 15 0 15 0 0 54 0 53 -15 0 -15 0 0 -53z" />
    <path d="M2613 2818 c-18 -11 -33 -24 -33 -28 l0 -9 29 10 c16 6 37 19 47 30
l17 19 -14 -1 c-8 0 -29 -10 -46 -21z" />
    <path d="M2725 2813 l-20 -16 17 6 16 6 6 -15 c8 -20 26 -17 26 5 0 26 -22 32
-45 14z" />
    <path d="M4050 2673 c0 -34 4 -63 9 -63 14 0 21 27 21 79 l0 48 -15 0 -15 0 0
-64z" />
    <path d="M2962 2689 c-14 -44 -8 -68 6 -28 19 50 23 69 15 69 -4 0 -14 -19
-21 -41z" />
    <path d="M3340 2570 c0 -6 -4 -8 -10 -5 -16 10 -11 0 15 -31 l25 -29 0 18 c0
9 -4 17 -10 17 -5 0 -7 6 -4 14 3 8 1 17 -5 21 -6 3 -11 1 -11 -5z" />
    <path d="M2195 2517 c-18 -42 -18 -47 -6 -47 11 0 35 69 27 77 -3 3 -13 -10
-21 -30z" />
    <path d="M1604 2528 c-3 -4 11 -8 30 -8 20 0 36 4 36 8 0 5 -14 9 -30 9 -17 0
-33 -4 -36 -9z" />
    <path d="M696 2503 c-3 -16 -8 -38 -12 -51 l-6 -22 15 6 c9 3 16 13 15 22 0 9
3 29 6 45 l6 27 -9 0 c-4 0 -11 -12 -15 -27z" />
    <path d="M2432 2500 c-16 -44 -15 -51 4 -43 l16 6 -5 19 -5 19 14 -12 c18 -15
18 1 1 26 l-14 18 -11 -33z" />
    <path d="M1535 2510 c-3 -5 -14 -10 -24 -10 l-18 0 0 -15 c0 -8 6 -15 14 -15
7 0 13 5 13 10 0 6 7 10 15 10 8 0 15 7 15 15 0 17 -6 19 -15 5z" />
    <path d="M1834 2508 c-5 -7 47 -38 64 -38 5 0 9 7 9 15 l0 15 -19 0 c-11 0
-17 4 -13 9 l5 10 -21 -2 c-11 -1 -23 -5 -25 -9z" />
    <path d="M2640 2440 l0 -15 -9 14 -8 13 0 -26 c0 -14 3 -26 8 -26 5 0 9 5 9
10 0 6 11 16 25 22 14 6 25 15 25 19 0 5 -11 8 -25 7 l-25 -2 0 -16z" />
    <path d="M2750 2450 c0 -18 38 -53 49 -46 l11 7 -25 25 c-26 26 -35 30 -35 14z" />
    <path d="M1835 2380 c3 -5 11 -10 17 -10 7 0 22 -10 35 -22 13 -12 26 -18 30
-14 4 4 0 12 -9 17 -9 5 -24 16 -32 24 -8 8 -22 15 -31 15 l-16 0 6 -10z" />
    <path d="M2124 2356 l0 -36 11 3 c5 2 11 16 13 31 l4 28 -10 -6 c-6 -3 -12 -1
-14 5 -2 7 -4 -4 -4 -25z" />
    <path d="M2057 2374 c-9 -10 12 -44 27 -44 16 0 17 32 2 42 -14 9 -21 10 -29
2z" />
    <path d="M650 2337 l0 -24 15 0 c8 0 15 7 15 14 0 8 -4 11 -10 8 l-10 -6 6 15
6 16 -11 0 c-6 0 -11 -10 -11 -23z" />
    <path d="M3416 2281 c-9 -14 2 -51 15 -51 11 0 12 30 0 49 l-8 13 -7 -11z" />
    <path d="M2605 2270 c-3 -5 -3 -15 1 -22 l7 -11 -21 5 -21 6 6 -14 c6 -15 13
-17 37 -8 l16 6 0 24 c0 24 -14 32 -25 14z" />
    <path d="M2370 2216 c0 -20 28 -46 48 -46 l17 1 -19 14 c-11 8 -16 15 -12 15
5 0 3 7 -4 15 -16 19 -30 19 -30 1z" />
    <path d="M2530 2209 l15 -11 -21 5 -21 4 0 -14 0 -14 26 6 c34 9 39 14 21 25
-21 13 -38 12 -20 -1z" />
    <path d="M2555 2091 c-3 -5 0 -13 6 -17 6 -3 14 -2 18 4 l7 11 14 -9 15 -10
-14 0 c-8 0 -12 -2 -9 -5 3 -3 13 -3 22 1 l17 6 -18 14 c-21 16 -49 18 -58 5z" />
    <path d="M3440 1995 c0 -19 5 -35 10 -35 6 0 10 16 10 35 0 19 -4 35 -10 35
-5 0 -10 -16 -10 -35z" />
    <path d="M2370 1992 l0 -11 -15 5 -15 6 0 -37 0 -36 11 6 c5 4 9 14 7 23 -2
10 3 22 12 29 8 6 12 15 7 19 -4 4 -7 2 -7 -4z" />
    <path d="M1815 1963 c7 -30 13 -39 19 -32 8 8 -6 59 -16 59 l-10 0 7 -27z" />
    <path d="M2310 1828 c0 -7 -3 -24 -6 -38 l-5 -25 15 19 c18 22 21 56 6 56 -5
0 -10 -6 -10 -12z" />
    <path d="M1977 1820 c-8 -21 -18 -79 -20 -112 -1 -16 -5 -28 -9 -28 -5 0 -8
-4 -8 -10 0 -5 6 -10 14 -10 l13 0 13 74 c7 40 10 80 7 87 l-5 14 -5 -15z" />
    <path d="M1566 1771 l6 -24 -11 7 -11 7 0 -11 c0 -6 -4 -8 -10 -5 -5 3 -10 2
-10 -3 0 -5 11 -9 25 -9 14 0 25 3 25 7 0 5 3 16 7 26 l6 17 -10 -6 c-6 -4
-14 -1 -17 5 -3 7 -3 2 0 -11z" />
    <path d="M1514 1707 l-5 -14 -23 4 -23 5 0 -16 c0 -9 3 -16 5 -16 15 0 72 25
72 31 0 15 -20 20 -26 6z" />
    <path d="M1658 1624 c-16 -8 -28 -19 -28 -24 0 -17 20 -11 48 15 30 28 21 32
-20 9z" />
    <path d="M2216 1508 l-5 -23 12 -13 13 -12 0 35 c0 39 -11 46 -20 13z" />
    <path d="M3323 1501 c-12 -20 -7 -61 8 -61 5 0 9 9 9 21 l0 20 -11 -7 -12 -7
5 14 c3 8 10 13 16 12 l11 -3 -5 15 c-8 19 -7 19 -21 -4z" />
    <path d="M1903 1451 l-6 -23 -9 14 -9 13 3 -19 c5 -30 25 -30 32 0 4 14 4 29
1 32 -3 3 -8 -4 -12 -17z" />
    <path d="M3246 1328 c-15 -16 -26 -32 -22 -35 3 -4 6 -1 6 6 l0 13 15 -6 15
-5 10 20 c19 34 6 38 -24 7z" />
    <path d="M2133 1343 c-7 -2 -13 -11 -13 -18 0 -7 -5 -15 -11 -17 -7 -2 -10
-10 -7 -18 l4 -14 19 31 c10 18 23 29 28 26 l10 -6 -7 11 c-4 7 -8 12 -9 11
-1 0 -8 -3 -14 -6z" />
    <path d="M1420 1300 c-14 -4 -19 -8 -12 -9 7 -1 10 -5 7 -11 -7 -11 6 -13 29
-4 9 3 16 12 16 20 0 15 -3 16 -40 4z" />
    <path d="M840 1286 c0 -18 32 -76 43 -76 12 0 8 17 -7 30 l-15 11 6 16 6 16
-13 -8 -13 -8 6 16 6 17 -9 0 c-6 0 -10 -6 -10 -14z" />
    <path d="M1614 1244 c3 -9 6 -22 6 -30 0 -28 17 -13 18 16 l1 30 -16 0 -15 0
6 -16z" />
    <path d="M1346 1108 c15 -49 25 -71 30 -66 7 8 -19 88 -29 88 -5 0 -5 -10 -1
-22z" />
    <path d="M1597 1107 c-20 -31 -22 -57 -4 -57 l13 0 -1 28 0 27 18 -3 c9 -2 17
2 17 8 0 6 -4 9 -9 6 -5 -4 -11 -1 -13 5 l-4 12 -17 -26z" />
    <path d="M1699 1104 c-15 -8 -32 -21 -39 -29 l-12 -15 16 0 c9 0 16 5 16 10 0
6 7 10 15 10 8 0 15 5 15 10 0 6 7 10 15 10 8 0 15 5 15 10 0 13 -8 11 -41 -6z" />
    <path d="M3082 1102 l3 -17 -12 2 -12 3 6 -16 6 -15 18 20 c23 24 23 27 4 35
l-16 6 3 -18z" />
    <path d="M1821 1036 l-11 -13 40 1 40 1 -17 13 c-22 16 -38 15 -52 -2z" />
    <path d="M1683 983 c-27 -5 -30 -18 -7 -27 22 -8 26 -8 20 3 l-6 9 18 -5 19
-4 0 15 c0 16 -4 17 -44 9z" />
    <path d="M2833 878 c1 -6 -14 -16 -33 -23 -19 -6 -34 -15 -32 -18 6 -16 1 -21
-8 -7 l-10 15 0 -17 c0 -25 10 -23 63 13 53 35 53 35 32 43 l-15 5 3 -11z" />
    <path d="M1267 853 c-9 -8 22 -43 38 -43 6 0 12 7 12 14 0 8 -3 15 -6 14 -3 0
-14 0 -24 1 l-18 1 6 10 c7 11 2 13 -8 3z" />
    <path d="M1546 701 c25 -23 104 -38 104 -21 0 6 -6 10 -12 9 -7 -1 -26 3 -41
9 -16 7 -36 12 -45 12 l-16 0 10 -9z" />
    <path d="M2310 670 l-25 -8 18 -1 18 -1 -7 -11 -7 -12 29 7 c37 10 42 15 24
26 -17 11 -16 11 -50 0z" />
    <path d="M1737 664 c-11 -12 3 -24 28 -24 13 0 26 4 29 9 10 15 -43 29 -57 15z" />
    <path d="M1960 620 l0 -10 60 0 60 0 0 10 0 10 -60 0 -60 0 0 -10z" />
  </g>
  <g transform="translate(0.000000,406.000000) scale(0.100000,-0.100000)" fill="#eeeeee" stroke="none">
    <path d="M4054 3954 c3 -9 6 -27 6 -40 0 -13 5 -24 10 -24 11 0 13 39 4 64 -3
9 -11 16 -16 16 l-10 0 6 -16z" />
    <path d="M1965 3440 l-6 -10 81 0 81 0 -6 10 -6 10 -69 0 -69 0 -6 -10z" />
    <path d="M1571 3369 c-47 -16 -90 -34 -95 -40 l-11 -12 20 6 c104 33 185 63
185 69 0 11 -5 10 -99 -23z" />
    <path d="M2453 3384 c10 -10 80 -34 86 -29 4 4 -22 16 -69 30 l-25 7 8 -8z" />
    <path d="M2610 3327 c0 -8 152 -88 157 -83 3 2 -24 20 -59 39 -69 39 -98 52
-98 44z" />
    <path d="M1397 3299 c-22 -11 -37 -22 -35 -25 7 -6 88 30 88 39 0 11 -11 8
-53 -14z" />
    <path d="M1234 3199 c-49 -33 -96 -67 -104 -75 l-14 -14 10 0 c6 0 22 10 35
21 13 12 58 44 99 71 84 56 87 58 74 58 -6 0 -50 -27 -100 -61z" />
    <path d="M3013 3053 c60 -67 137 -142 137 -135 0 12 -132 152 -143 152 -6 0
-3 -8 6 -17z" />
    <path d="M1000 3005 c-18 -19 -31 -37 -29 -40 3 -2 20 11 38 31 19 19 31 37
29 39 -2 3 -20 -11 -38 -30z" />
    <path d="M4060 2981 c0 -17 5 -31 10 -31 6 0 10 11 10 24 0 14 -4 28 -10 31
l-10 6 0 -30z" />
    <path d="M2561 2900 c-24 -11 -42 -22 -39 -25 5 -5 93 27 104 38 14 14 -21 6
-65 -13z" />
    <path d="M3160 2891 c0 -5 7 -14 15 -21 8 -7 15 -19 15 -26 0 -8 4 -14 8 -14
4 0 16 -14 26 -31 10 -17 20 -28 23 -25 5 5 -74 126 -82 126 -3 0 -5 -4 -5 -9z" />
    <path d="M881 2859 c-22 -30 -25 -45 -6 -31 13 9 37 53 32 58 -2 2 -14 -10
-26 -27z" />
    <path d="M2542 2763 c-27 -36 -62 -95 -62 -108 0 -18 18 0 29 30 7 19 28 51
47 71 36 39 39 44 25 44 -5 0 -23 -17 -39 -37z" />
    <path d="M776 2691 c-19 -35 -20 -45 -5 -36 12 8 32 56 25 62 -2 3 -12 -9 -20
-26z" />
    <path d="M2825 2600 c3 -5 17 -10 31 -10 13 0 24 5 24 10 0 6 -14 10 -31 10
l-30 0 6 -10z" />
    <path d="M719 2564 c-29 -74 -49 -138 -44 -142 8 -8 10 -3 38 83 25 76 30 118
6 59z" />
    <path d="M3355 2538 c3 -13 9 -33 12 -45 3 -13 10 -23 15 -23 l9 0 -7 23 c-14
45 -24 67 -30 67 -3 0 -3 -10 1 -22z" />
    <path d="M1670 2530 c0 -5 14 -10 30 -10 17 0 30 5 30 10 0 6 -13 10 -30 10
-16 0 -30 -4 -30 -10z" />
    <path d="M1776 2522 c5 -5 31 -17 57 -26 26 -10 71 -33 99 -52 56 -38 79 -40
26 -3 -18 13 -35 26 -38 29 -8 10 -126 60 -141 60 l-13 0 10 -8z" />
    <path d="M1517 2490 c-14 -11 -30 -20 -36 -20 -6 0 -11 -4 -11 -10 0 -5 2 -10
4 -10 7 0 96 52 96 56 0 11 -30 2 -53 -16z" />
    <path d="M2162 2419 c-14 -44 -8 -68 6 -28 19 50 23 69 15 69 -4 0 -14 -19
-21 -41z" />
    <path d="M1665 2416 c-35 -15 -60 -42 -69 -73 l-7 -23 10 0 c5 0 12 13 16 28
l6 29 35 16 c19 10 41 17 49 17 8 0 15 5 15 10 0 13 -19 12 -55 -4z" />
    <path d="M2016 2382 c5 -5 30 -28 57 -52 26 -24 50 -40 53 -37 10 10 -88 97
-109 97 l-11 0 10 -8z" />
    <path d="M1360 2324 c-16 -48 -5 -55 14 -9 19 44 19 45 7 45 -5 0 -15 -16 -21
-36z" />
    <path d="M1890 2352 c0 -6 4 -12 9 -14 6 -1 44 -36 86 -77 41 -41 78 -71 82
-68 5 6 -150 158 -168 165 -5 2 -9 -1 -9 -6z" />
    <path d="M2800 2325 c0 -20 -7 -50 -16 -66 -8 -17 -13 -33 -11 -36 11 -10 40
50 45 92 l5 45 -12 0 -11 0 0 -35z" />
    <path d="M2620 2250 c0 -11 -100 -60 -123 -60 -10 0 -17 -5 -17 -11 l0 -10 23
6 c68 19 167 85 128 85 -6 0 -11 -4 -11 -10z" />
    <path d="M1610 2243 c0 -6 18 -30 40 -54 21 -24 39 -39 39 -34 0 6 -18 30 -39
54 -22 24 -40 39 -40 34z" />
    <path d="M3440 2081 l0 -41 10 0 c6 0 10 15 10 34 0 19 -4 38 -10 41 l-10 6 0
-40z" />
    <path d="M1380 2074 c1 -14 71 -107 76 -101 3 3 -11 27 -31 54 -45 59 -45 58
-45 47z" />
    <path d="M1760 2069 c0 -4 12 -28 26 -53 26 -46 42 -56 30 -18 -7 20 -56 82
-56 71z" />
    <path d="M1287 1948 c11 -13 26 -34 33 -46 6 -13 14 -22 16 -19 7 7 -13 52
-31 70 -25 26 -41 20 -18 -5z" />
    <path d="M1510 1917 c0 -2 14 -21 30 -42 17 -21 30 -44 30 -51 0 -8 5 -14 10
-14 17 0 12 15 -19 58 -27 36 -51 60 -51 49z" />
    <path d="M1120 1790 c10 -34 39 -84 45 -78 4 4 -39 96 -50 106 -2 3 0 -10 5
-28z" />
    <path d="M1303 1776 l-16 -34 8 -19 8 -18 7 35 c4 19 11 43 15 53 13 32 -5 17
-22 -17z" />
    <path d="M1745 1690 c-16 -17 -24 -30 -19 -30 13 0 59 48 52 55 -2 3 -17 -9
-33 -25z" />
    <path d="M3366 1563 c-10 -32 -21 -64 -24 -72 l-5 -14 11 6 c6 4 18 31 28 60
9 28 19 58 22 65 2 6 0 12 -5 12 -5 0 -17 -26 -27 -57z" />
    <path d="M686 1588 c15 -49 25 -71 30 -65 8 8 -18 87 -28 87 l-9 0 7 -22z" />
    <path d="M1435 1580 c3 -5 26 -10 50 -10 24 0 47 5 50 10 l6 10 -56 0 -56 0 6
-10z" />
    <path d="M3301 1404 c-17 -32 -30 -63 -28 -69 2 -5 18 19 36 54 41 80 34 92
-8 15z" />
    <path d="M1881 1379 c-7 -23 -10 -43 -7 -46 5 -6 15 16 30 65 l7 22 -9 0 c-5
0 -14 -18 -21 -41z" />
    <path d="M2112 1320 c-35 -57 -37 -60 -22 -60 6 0 10 5 10 12 0 6 12 26 26 45
14 18 24 38 22 44 -2 6 -18 -12 -36 -41z" />
    <path d="M810 1317 c0 -12 93 -148 98 -143 2 3 -10 25 -27 50 -17 24 -31 47
-31 51 0 3 -9 15 -20 27 -11 12 -20 19 -20 15z" />
    <path d="M1600 1256 c0 -13 32 -77 37 -73 8 8 -17 77 -28 77 -5 0 -9 -2 -9 -4z" />
    <path d="M1970 1155 c-19 -19 -29 -35 -22 -35 12 0 62 50 62 62 0 13 -4 10
-40 -27z" />
    <path d="M1602 1120 c-38 -61 -39 -67 -11 -75 l21 -7 11 11 11 11 -22 0 c-29
0 -28 16 4 57 14 18 24 38 22 44 -2 6 -18 -12 -36 -41z" />
    <path d="M970 1094 c0 -6 16 -25 35 -44 19 -19 35 -29 35 -24 0 6 -16 25 -35
44 -19 19 -35 29 -35 24z" />
    <path d="M3036 1034 c-21 -20 -35 -38 -32 -42 4 -3 23 11 43 31 48 47 38 57
-11 11z" />
    <path d="M1070 985 c13 -14 27 -25 32 -25 15 0 -26 49 -41 50 l-14 0 23 -25z" />
    <path d="M1698 986 c-20 -6 -40 -15 -44 -19 l-9 -8 25 4 c33 7 80 25 80 32 0
7 -7 5 -52 -9z" />
    <path d="M1540 960 c0 -5 16 -10 35 -10 19 0 35 5 35 10 0 6 -16 10 -35 10
-19 0 -35 -4 -35 -10z" />
    <path d="M2827 863 c-37 -25 -65 -48 -63 -50 4 -4 146 87 146 93 0 10 -20 -1
-83 -43z" />
    <path d="M1180 895 c0 -9 140 -98 146 -93 3 3 -14 17 -38 31 -24 14 -54 35
-67 46 -23 20 -41 27 -41 16z" />
    <path d="M2652 763 c-35 -19 -61 -37 -59 -40 5 -5 147 64 147 72 0 11 -28 1
-88 -32z" />
    <path d="M2493 697 c-17 -7 -35 -16 -40 -21 l-8 -8 25 7 c44 14 70 24 70 30 0
7 -10 5 -47 -8z" />
    <path d="M1915 620 c3 -5 20 -10 36 -10 l30 0 -6 10 c-3 6 -20 10 -36 10 l-30
0 6 -10z" />
  </g>
  <g transform="translate(0.000000,406.000000) scale(0.100000,-0.100000)" fill="#191919" stroke="none">
    <path d="M4050 3902 l0 -29 15 0 c17 0 17 2 9 35 -9 31 -24 27 -24 -6z" />
    <path d="M4050 2932 l0 -49 15 0 15 0 0 33 c0 18 -3 39 -6 48 -12 31 -24 15
-24 -32z" />
    <path d="M740 2611 c-13 -25 -13 -41 0 -41 6 0 10 9 10 20 0 11 5 20 10 20 6
0 10 5 10 10 0 17 -19 11 -30 -9z" />
    <path d="M670 2416 c0 -8 -3 -22 -7 -32 l-6 -17 10 6 c6 4 13 2 15 -4 2 -7 4
5 5 25 1 20 -3 36 -8 36 -5 0 -9 -6 -9 -14z" />
    <path d="M1373 2365 c-13 -25 -25 -75 -18 -75 2 0 12 17 20 37 17 39 15 71 -2
38z" />
    <path d="M1605 2355 c-11 -24 -12 -82 -2 -91 13 -13 18 3 8 28 l-10 25 11 11
c5 5 8 18 5 28 l-4 19 -8 -20z" />
    <path d="M2121 2333 l-10 -18 -1 13 c0 6 -7 12 -15 12 l-15 0 12 -20 c7 -11
20 -19 28 -18 l15 3 1 23 c2 27 -2 28 -15 5z" />
    <path d="M2623 2278 c-7 -8 -10 -18 -6 -22 4 -3 -2 -13 -13 -21 -10 -8 -14
-15 -8 -15 18 0 46 37 42 56 l-3 17 -12 -15z" />
    <path d="M2059 2187 c-2 -12 -1 -57 1 -64 1 -5 6 5 11 22 l8 30 -9 9 c-6 6
-10 7 -11 3z" />
    <path d="M2573 2103 c-27 -5 -30 -18 -7 -27 l15 -6 -7 12 -7 11 16 -6 15 -6 6
15 c3 8 2 13 -2 13 -4 -1 -17 -4 -29 -6z" />
    <path d="M1770 2050 c1 -8 26 -40 33 -40 2 0 4 10 3 23 l-1 23 -17 0 c-10 0
-18 -3 -18 -6z" />
    <path d="M2330 1918 c0 -7 -3 -24 -6 -38 l-7 -25 11 10 c6 6 14 22 17 38 l7
27 -11 0 c-6 0 -11 -6 -11 -12z" />
    <path d="M3410 1731 c-6 -12 -8 -26 -5 -31 3 -5 1 -11 -5 -15 -13 -8 -13 -25
0 -25 10 0 34 79 26 87 -2 3 -9 -5 -16 -16z" />
    <path d="M686 1606 c10 -45 24 -80 30 -73 3 3 1 22 -5 42 -5 20 -8 42 -5 49
l5 13 -16 0 -16 0 7 -31z" />
    <path d="M3370 1580 c-6 -12 -14 -34 -16 -48 l-5 -27 9 10 c12 13 33 77 28 82
-2 3 -10 -5 -16 -17z" />
    <path d="M770 1395 c0 -4 7 -19 15 -35 22 -42 36 -37 17 5 -14 30 -32 47 -32
30z" />
    <path d="M1883 1392 c-6 -4 -14 -23 -18 -42 -4 -19 -13 -38 -19 -42 l-11 -7
12 -12 11 -11 21 57 c22 60 23 69 4 57z" />
    <path d="M1455 751 c-8 -14 -9 -13 28 -29 34 -15 50 -15 42 -2 -4 6 -11 8 -16
5 -5 -4 -9 -1 -9 5 0 6 -4 9 -9 5 -6 -3 -14 2 -19 11 l-9 17 -8 -12z" />
    <path d="M1655 665 c17 -8 37 -14 45 -15 l14 0 -11 11 c-5 5 -25 12 -44 14
l-34 3 30 -13z" />
  </g>
  <g transform="translate(0.000000,406.000000) scale(0.100000,-0.100000)" fill="#212121" stroke="none">
    <path d="M4050 3410 l0 -121 10 6 10 6 0 109 0 109 -10 6 -10 6 0 -121z" />
    <path d="M4050 2994 l0 -35 10 6 c6 3 10 19 10 36 0 16 -4 29 -10 29 -5 0 -10
-16 -10 -36z" />
    <path d="M2348 2748 c-27 -34 -21 -46 7 -16 14 15 25 30 25 33 0 12 -16 3 -32
-17z" />
    <path d="M2242 2613 c-7 -12 -12 -27 -12 -34 l0 -13 16 16 c9 8 14 24 12 34
l-4 19 -12 -22z" />
    <path d="M1760 2532 c0 -10 72 -34 79 -27 2 3 -12 12 -32 20 -42 17 -47 18
-47 7z" />
    <path d="M692 2479 c-5 -13 -13 -35 -17 -49 l-7 -25 10 10 c12 13 34 77 27 83
-2 3 -8 -6 -13 -19z" />
    <path d="M3380 2443 c0 -20 17 -50 24 -43 2 3 2 17 -1 33 -6 30 -23 37 -23 10z" />
    <path d="M1296 1754 c-6 -16 9 -54 22 -54 4 0 8 9 8 19 l0 20 -10 -6 -9 -6 6
16 c3 9 2 19 -2 22 -5 3 -12 -2 -15 -11z" />
    <path d="M1535 1737 c-10 -8 -15 -19 -12 -24 4 -6 0 -14 -9 -17 -9 -4 -14 -9
-11 -13 4 -3 13 0 21 6 l15 12 -6 16 -6 16 15 -5 15 -6 0 14 c0 17 1 17 -22 1z" />
    <path d="M1376 1669 c3 -5 25 -9 50 -9 25 0 43 4 40 9 -3 4 -26 8 -50 8 -25 0
-43 -4 -40 -8z" />
    <path d="M2191 1462 c-14 -26 -14 -42 -1 -42 11 0 25 48 17 56 -3 3 -10 -3
-16 -14z" />
    <path d="M1794 1191 l-18 -30 -10 6 c-6 3 -8 2 -3 -2 4 -5 0 -17 -10 -27 -9
-10 -12 -18 -6 -18 12 0 77 89 70 96 -3 3 -13 -8 -23 -25z" />
    <path d="M1475 971 c6 -6 28 -13 50 -16 l39 -5 -10 9 c-5 5 -27 12 -49 16
l-40 7 10 -11z" />
  </g>
  <g transform="translate(0.000000,406.000000) scale(0.100000,-0.100000)" fill="#bbbbbb" stroke="none">
    <path d="M410 4050 l0 -10 95 0 95 0 0 10 0 10 -95 0 -95 0 0 -10z" />
    <path d="M730 4050 l0 -10 335 0 335 0 0 10 0 10 -335 0 -335 0 0 -10z" />
    <path d="M2420 4050 l0 -10 370 0 370 0 0 10 0 10 -370 0 -370 0 0 -10z" />
  </g>
  <g transform="translate(0.000000,406.000000) scale(0.100000,-0.100000)" fill="#c8c8c8" stroke="none">
    <path d="M1385 4050 l6 -10 519 0 519 0 6 10 6 10 -531 0 -531 0 6 -10z" />
    <path d="M4074 3705 c0 -77 2 -107 3 -67 2 40 2 103 0 140 -2 37 -3 4 -3 -73z" />
    <path d="M2700 2930 l-25 -8 43 -1 42 -1 0 10 c0 12 -24 12 -60 0z" />
    <path d="M4073 2765 c0 -33 2 -45 4 -27 2 18 2 45 0 60 -2 15 -4 0 -4 -33z" />
  </g>
  <g transform="translate(0.000000,406.000000) scale(0.100000,-0.100000)" fill="#e3e3e3" stroke="none">
    <path d="M1026 3030 c-16 -17 -26 -33 -23 -36 2 -3 14 6 25 20 10 14 22 23 24
20 3 -3 8 2 11 11 10 24 -6 18 -37 -15z" />
    <path d="M1340 2220 c0 -16 5 -30 10 -30 6 0 10 14 10 30 0 17 -4 30 -10 30
-5 0 -10 -13 -10 -30z" />
    <path d="M3450 1993 l-5 -62 8 8 c5 4 7 32 5 62 l-3 54 -5 -62z" />
    <path d="M3206 1239 c-14 -23 -25 -43 -23 -46 2 -2 16 15 31 38 15 22 26 43
23 45 -2 2 -16 -15 -31 -37z" />
  </g>
  <g transform="translate(0.000000,406.000000) scale(0.100000,-0.100000)" fill="#818181" stroke="none">
    <path d="M893 4053 c59 -2 155 -2 215 0 59 1 10 3 -108 3 -118 0 -167 -2 -107
-3z" />
    <path d="M1423 4053 c26 -2 67 -2 90 0 23 2 2 3 -48 3 -49 0 -68 -1 -42 -3z" />
    <path d="M2023 4053 c43 -2 110 -2 150 0 40 1 5 3 -78 3 -82 0 -115 -2 -72 -3z" />
    <path d="M4052 3368 c-1 -159 1 -288 6 -288 4 0 6 102 4 227 -4 352 -8 377
-10 61z" />
  </g>
  <g transform="translate(0.000000,406.000000) scale(0.100000,-0.100000)" fill="#d6d6d6" stroke="none">
    <path d="M3192 2848 c8 -13 25 -40 37 -61 13 -21 25 -36 28 -33 5 4 -67 116
-75 116 -2 0 2 -10 10 -22z" />
    <path d="M686 1598 c13 -43 24 -68 29 -68 2 0 1 10 -4 23 -10 25 -11 31 -11
52 0 8 -5 15 -11 15 l-10 0 7 -22z" />
  </g>
  <g transform="translate(0.000000,406.000000) scale(0.100000,-0.100000)" fill="#aeaeae" stroke="none">
    <path d="M310 4050 l0 -10 54 0 c30 0 58 5 61 10 l6 10 -60 0 -61 0 0 -10z" />
    <path d="M585 4050 l6 -10 74 0 74 0 6 10 6 10 -86 0 -86 0 6 -10z" />
    <path d="M3145 4050 l6 -10 195 0 194 0 0 10 0 10 -201 0 -200 0 6 -10z" />
  </g>
  <g transform="translate(0.000000,406.000000) scale(0.100000,-0.100000)" fill="#747474" stroke="none">
    <path d="M483 4053 c54 -2 139 -2 190 0 51 1 7 3 -98 3 -104 0 -146 -2 -92 -3z" />
    <path d="M1777 4053 c18 -2 50 -2 70 0 21 2 7 4 -32 4 -38 0 -55 -2 -38 -4z" />
    <path d="M2838 4053 c84 -2 219 -2 300 0 81 1 12 3 -153 3 -165 0 -231 -2
-147 -3z" />
  </g>
  <g transform="translate(0.000000,406.000000) scale(0.100000,-0.100000)" fill="#323232" stroke="none">
    <path d="M2296 1762 c-8 -14 -25 -94 -18 -87 9 8 32 88 28 93 -2 2 -7 -1 -10
-6z" />
  </g>
  <g transform="translate(0.000000,406.000000) scale(0.100000,-0.100000)" fill="#2a2a2a" stroke="none">
    <path d="M4058 3097 c-5 -10 -8 -30 -8 -45 l0 -26 11 11 c6 6 9 26 7 44 l-3
34 -7 -18z" />
  </g>
  <g transform="translate(0.000000,406.000000) scale(0.100000,-0.100000)" fill="#7a7a7a" stroke="none">
    <path d="M1248 4053 c29 -2 74 -2 100 0 26 2 2 3 -53 3 -55 0 -76 -1 -47 -3z" />
    <path d="M1578 4053 c23 -2 59 -2 80 0 20 2 1 4 -43 4 -44 0 -61 -2 -37 -4z" />
    <path d="M2348 4053 c68 -2 176 -2 240 0 64 1 9 3 -123 3 -132 0 -185 -2 -117
-3z" />
  </g>
  <g transform="translate(0.000000,406.000000) scale(0.100000,-0.100000)" fill="#686868" stroke="none">
    <path d="M170 4052 c0 -12 113 -14 180 -3 l55 9 -117 1 c-65 0 -118 -3 -118
-7z" />
    <path d="M3300 4054 c83 -8 250 -8 250 -1 0 4 -64 6 -142 5 -79 -1 -127 -3
-108 -4z" />
    <path d="M3940 4050 c0 -5 14 -10 30 -10 17 0 30 5 30 10 0 6 -13 10 -30 10
-16 0 -30 -4 -30 -10z" />
  </g>
  <g transform="translate(0.000000,406.000000) scale(0.100000,-0.100000)" fill="#4f4f4f" stroke="none">
    <path d="M3670 4050 l0 -10 43 1 c23 0 60 4 82 8 l40 9 -82 1 -83 1 0 -10z" />
  </g>
  <g transform="translate(0.000000,406.000000) scale(0.100000,-0.100000)" fill="#444444" stroke="none">
    <path d="M3823 4053 c10 -10 197 -11 197 -1 0 4 -46 8 -102 8 -56 0 -98 -3
-95 -7z" />
  </g>
  <g transform="translate(0.000000,406.000000) scale(0.100000,-0.100000)" fill="#959595" stroke="none">
    <path d="M3560 4050 l0 -10 45 0 45 0 0 10 0 10 -45 0 -45 0 0 -10z" />
    <path d="M4053 2940 c0 -41 2 -58 4 -37 2 20 2 54 0 75 -2 20 -4 3 -4 -38z" />
  </g>
  <g transform="translate(0.000000,406.000000) scale(0.100000,-0.100000)" fill="#5a5a5a" stroke="none">
    <path d="M3537 4052 c-3 -4 30 -7 73 -8 44 0 77 3 74 8 -6 10 -141 11 -147 0z" />
  </g>
  <g transform="translate(0.000000,406.000000) scale(0.100000,-0.100000)" fill="#9f9f9f" stroke="none">
    <path d="M217 4043 c18 -2 50 -2 70 0 21 2 7 4 -32 4 -38 0 -55 -2 -38 -4z" />
  </g>
  <g transform="translate(0.000000,406.000000) scale(0.100000,-0.100000)" fill="#8b8b8b" stroke="none">
    <path d="M4054 2735 c0 -82 2 -115 3 -72 2 43 2 110 0 150 -1 40 -3 5 -3 -78z" />
  </g>
  <g transform="translate(0.000000,406.000000) scale(0.100000,-0.100000)" fill="#3a3a3a" stroke="none" />
</svg>